<svg width="148" height="131" viewBox="0 0 148 131" fill="none" xmlns="http://www.w3.org/2000/svg">
<path opacity="0.5" fill-rule="evenodd" clip-rule="evenodd" d="M29.246 21.1557C29.2459 14.6167 31.554 8.84695 44.2473 0C43.478 8.84695 39.6315 13.8474 29.246 21.1557ZM23.0826 27.9312C20.0269 22.1501 19.3713 15.9705 26.4592 2.21733C29.9132 10.3984 28.8493 16.6168 23.0826 27.9312ZM14.7359 52.0542C9.11831 48.7074 5.34296 43.7714 4.23951 28.3386C11.446 33.5277 13.7731 39.3915 14.7359 52.0542ZM16.7344 68.33C10.7336 65.732 6.35582 61.3215 3.28039 46.1581C11.0934 50.3791 14.154 55.8957 16.7344 68.33ZM20.2066 79.6859C13.6796 79.2892 8.0605 76.6353 0 63.4286C8.78397 64.7332 13.5418 68.8761 20.2066 79.6859ZM32.9389 95.7642C27.3228 96.9318 17.4663 92.4403 8.09035 80.1326C20.399 81.5456 25.1978 85.6971 32.9389 95.7642ZM40.9434 102.714C36.2482 106.01 24.2457 105.779 11.1676 98.1953C21.5532 94.6236 29.8497 96.5338 40.9434 102.714ZM25.749 84.9037C21.2419 80.1661 18.4758 68.8524 22.3224 56.5436C27.8627 63.4836 28.8614 73.8529 25.749 84.9037ZM45.4361 104.011C34.6577 98.1004 32.7174 91.1962 29.1343 78.4471L29.1078 78.3525C38.0929 82.3152 43.478 93.0854 45.4361 104.011ZM21.1685 36.1136C22.4772 29.7068 28.0921 21.925 39.2469 17.6938C38.093 25.7715 28.4767 34.2337 21.1685 36.1136ZM16.3148 41.19C12.8485 35.6453 10.7861 25.3674 15.9545 14.6147C20.6843 21.2637 20.3157 34.7918 16.3148 41.19ZM16.6335 61.0518C15.5224 54.6079 17.5013 44.3136 26.3532 36.3151C28.2163 44.2592 22.7576 56.6426 16.6335 61.0518ZM56.2017 109.225C51.9404 113.472 37.0439 116.07 26.1689 111.164C32.7011 106.274 45.4014 105.394 56.2017 109.225ZM69.0364 113.392C67.7097 119.882 53.4783 122.319 39.6493 119.881C45.3604 114.054 51.5549 111.549 69.0336 113.391C52.7092 106.547 47.7092 101.547 46.1706 94.2398C61.5566 99.2397 71.1731 108.472 69.0367 113.393L69.0364 113.392ZM64.0083 122.64L64.0083 122.64C60.2436 125.33 56.5347 127.982 57.7101 129.627C59.6334 132.32 70.7882 122.319 70.0189 117.703C68.8222 119.199 66.404 120.927 64.0083 122.64ZM118.754 21.1557C118.754 14.6167 116.446 8.84695 103.753 0C104.522 8.84695 108.368 13.8474 118.754 21.1557ZM124.918 27.9312C127.973 22.15 128.629 15.9704 121.541 2.2173C118.087 10.3984 119.151 16.6167 124.918 27.9312ZM133.264 52.0542C138.882 48.7074 142.657 43.7714 143.76 28.3386C136.554 33.5277 134.227 39.3915 133.264 52.0542ZM131.266 68.33C137.266 65.732 141.644 61.3215 144.72 46.1581C136.907 50.3791 133.846 55.8957 131.266 68.33ZM127.793 79.6859C134.32 79.2892 139.939 76.6353 148 63.4286C139.216 64.7332 134.458 68.8761 127.793 79.6859ZM115.061 95.7642C120.677 96.9317 130.534 92.4403 139.91 80.1326C127.601 81.5455 122.802 85.6971 115.061 95.7642ZM107.057 102.714C111.752 106.01 123.754 105.779 136.832 98.1953C126.447 94.6236 118.15 96.5338 107.057 102.714ZM122.251 84.9037C126.758 80.1661 129.524 68.8524 125.677 56.5435C120.137 63.4836 119.138 73.8529 122.251 84.9037ZM102.564 104.011C113.343 98.1004 115.283 91.1962 118.866 78.4471L118.893 78.3525C109.908 82.3152 104.522 93.0854 102.564 104.011ZM126.832 36.1136C125.523 29.7068 119.908 21.925 108.753 17.6938C109.907 25.7715 119.523 34.2337 126.832 36.1136ZM131.685 41.19C135.151 35.6453 137.214 25.3674 132.046 14.6147C127.316 21.2637 127.684 34.7918 131.685 41.19ZM131.366 61.0518C132.478 54.6079 130.499 44.3136 121.647 36.3151C119.784 44.2592 125.242 56.6426 131.366 61.0518ZM91.7978 109.225C96.0591 113.472 110.956 116.07 121.831 111.164C115.298 106.274 102.598 105.394 91.7978 109.225ZM78.9636 113.392C80.2903 119.882 94.5217 122.319 108.351 119.881C102.64 114.054 96.4451 111.549 78.9664 113.391C95.2908 106.547 100.291 101.547 101.829 94.2398C86.4434 99.2397 76.8269 108.472 78.9633 113.393L78.9636 113.392ZM83.9921 122.64L83.9921 122.64C87.7568 125.33 91.4657 127.982 90.2903 129.627C88.367 132.32 77.2122 122.319 77.9815 117.703C79.1782 119.199 81.5964 120.927 83.9921 122.64Z" fill="white"/>
</svg>
