<svg width="156" height="316" viewBox="0 0 156 316" fill="none" xmlns="http://www.w3.org/2000/svg">
<g id="Devices / Apple / iPhone 12 | 12 Pro">
<g id="Buttons">
<path id="Power Button" d="M154.584 80.9726H155.136C155.441 80.9726 155.688 81.2198 155.688 81.5247V117.594C155.688 117.899 155.441 118.146 155.136 118.146H154.584V80.9726Z" fill="#1C3343"/>
<path id="Volume Down" d="M1.10358 125.875L0.551491 125.875C0.246584 125.875 -0.000591816 125.628 -0.000591789 125.323L-0.000589891 103.608C-0.000589864 103.303 0.246586 103.056 0.551493 103.056L1.10358 103.056L1.10358 125.875Z" fill="#1C3343"/>
<path id="Volumn Up" d="M1.10358 95.6943L0.551491 95.6943C0.246584 95.6943 -0.000591816 95.4471 -0.000591789 95.1422L-0.000589891 73.427C-0.000589864 73.1221 0.246586 72.8749 0.551493 72.8749L1.10358 72.8749L1.10358 95.6943Z" fill="#213744"/>
<path id="Mute" d="M1.10358 61.833L0.551493 61.833C0.246586 61.833 -0.000590674 61.5858 -0.000590647 61.2809L-0.000589714 50.6073C-0.000589687 50.3024 0.246586 50.0552 0.551493 50.0552L1.10358 50.0552L1.10358 61.833Z" fill="#213744"/>
</g>
<path id="Device Surround" d="M1.10358 33.4931C1.10358 24.5873 1.10358 20.1345 2.27448 16.5308C4.64095 9.24755 10.3511 3.53738 17.6344 1.1709C21.2381 0 25.6909 0 34.5966 0H121.09C129.995 0 134.448 0 138.052 1.1709C145.335 3.53738 151.045 9.24755 153.412 16.5308C154.583 20.1345 154.583 24.5873 154.583 33.4931V282.299C154.583 291.204 154.583 295.657 153.412 299.261C151.045 306.544 145.335 312.254 138.052 314.621C134.448 315.792 129.995 315.792 121.09 315.792H34.5966C25.6909 315.792 21.2381 315.792 17.6344 314.621C10.3511 312.254 4.64095 306.544 2.27448 299.261C1.10358 295.657 1.10358 291.204 1.10358 282.299V33.4931Z" fill="#213744"/>
<path id="Highlight Band (Stroke)" fill-rule="evenodd" clip-rule="evenodd" d="M121.236 0.73622H34.4486C25.6512 0.73622 21.3399 0.74076 17.861 1.8711C10.8019 4.16475 5.26742 9.69923 2.97376 16.7584C1.84342 20.2372 1.83888 24.5486 1.83888 33.3459V282.446C1.83888 291.243 1.84342 295.555 2.97376 299.033C5.26742 306.093 10.8019 311.627 17.861 313.921C21.3399 315.051 25.6513 315.056 34.4486 315.056H121.236C130.033 315.056 134.345 315.051 137.824 313.921C144.883 311.627 150.417 306.093 152.711 299.033C153.841 295.555 153.846 291.243 153.846 282.446V33.3459C153.846 24.5486 153.841 20.2372 152.711 16.7584C150.417 9.69923 144.883 4.16475 137.824 1.8711C134.345 0.74076 130.033 0.73622 121.236 0.73622ZM2.62372 16.6446C1.47083 20.1929 1.47083 24.5772 1.47083 33.3459V282.446C1.47083 291.215 1.47083 295.599 2.62372 299.147C4.95378 306.318 10.5761 311.941 17.7473 314.271C21.2955 315.424 25.6799 315.424 34.4486 315.424H121.236C130.005 315.424 134.389 315.424 137.937 314.271C145.109 311.941 150.731 306.318 153.061 299.147C154.214 295.599 154.214 291.215 154.214 282.446V33.3459C154.214 24.5772 154.214 20.1929 153.061 16.6446C150.731 9.47345 145.109 3.85112 137.937 1.52105C134.389 0.368164 130.005 0.368164 121.236 0.368164H34.4486C25.6799 0.368164 21.2955 0.368164 17.7473 1.52105C10.5761 3.85112 4.95378 9.47345 2.62372 16.6446Z" fill="#8EADC1"/>
<path id="Background" d="M2.94525 32.7575C2.94525 24.5368 2.94525 20.4265 4.02609 17.1C6.21052 10.377 11.4815 5.10606 18.2045 2.92162C21.5309 1.84079 25.6413 1.84079 33.8619 1.84079H121.827C130.048 1.84079 134.158 1.84079 137.485 2.92162C144.208 5.10606 149.479 10.377 151.663 17.1C152.744 20.4265 152.744 24.5368 152.744 32.7575V283.035C152.744 291.256 152.744 295.366 151.663 298.693C149.479 305.416 144.208 310.687 137.485 312.871C134.158 313.952 130.048 313.952 121.827 313.952H33.8619C25.6413 313.952 21.5309 313.952 18.2045 312.871C11.4815 310.687 6.21052 305.416 4.02609 298.693C2.94525 295.366 2.94525 291.256 2.94525 283.035V32.7575Z" fill="#121515"/>
<g id="Antenna Bands">
<rect id="Antenna" x="121.828" y="0.000793457" width="2.20833" height="1.84028" fill="#36454C"/>
<rect id="Antenna_2" x="152.744" y="31.6532" width="1.84028" height="2.20833" fill="#36454C"/>
<rect id="Antenna_3" x="1.10529" y="31.6532" width="1.84028" height="2.20833" fill="#36454C"/>
<rect id="Antenna_4" x="1.10529" y="281.931" width="1.84028" height="2.20833" fill="#36454C"/>
<rect id="Antenna_5" x="152.744" y="281.931" width="1.84028" height="2.20833" fill="#36454C"/>
<rect id="Antenna_6" x="31.6541" y="313.952" width="2.20833" height="1.84028" fill="#36454C"/>
</g>
<g id="Camera">
<path id="Oval" fill-rule="evenodd" clip-rule="evenodd" d="M93.4855 14.7228C95.1117 14.7228 96.43 13.4045 96.43 11.7784C96.43 10.1522 95.1117 8.83392 93.4855 8.83392C91.8593 8.83392 90.5411 10.1522 90.5411 11.7784C90.5411 13.4045 91.8593 14.7228 93.4855 14.7228Z" fill="#262C2D"/>
<path id="Oval_2" fill-rule="evenodd" clip-rule="evenodd" d="M93.4855 13.6186C94.5019 13.6186 95.3258 12.7947 95.3258 11.7784C95.3258 10.762 94.5019 9.93808 93.4855 9.93808C92.4692 9.93808 91.6452 10.762 91.6452 11.7784C91.6452 12.7947 92.4692 13.6186 93.4855 13.6186Z" fill="#121515"/>
<path id="Oval_3" opacity="0.4" fill-rule="evenodd" clip-rule="evenodd" d="M93.4855 11.4103C93.6888 11.4103 93.8536 11.2455 93.8536 11.0422C93.8536 10.839 93.6888 10.6742 93.4855 10.6742C93.2822 10.6742 93.1175 10.839 93.1175 11.0422C93.1175 11.2455 93.2822 11.4103 93.4855 11.4103Z" fill="#636F73"/>
</g>
<g id="Speaker">
<path id="Speaker_2" fill-rule="evenodd" clip-rule="evenodd" d="M68.8262 11.778C68.8262 11.1681 69.3205 10.6738 69.9304 10.6738H85.7568C86.3666 10.6738 86.8609 11.1681 86.8609 11.778V11.778C86.8609 12.3878 86.3666 12.8821 85.7568 12.8821H69.9304C69.3205 12.8821 68.8262 12.3878 68.8262 11.778V11.778Z" fill="#262C2D"/>
</g>
</g>
</svg>
