<svg width="845" height="477" viewBox="0 0 845 477" fill="none" xmlns="http://www.w3.org/2000/svg">
<g id="Device - Macbook Air">
<g id="Top">
<path id="Lid" d="M105.605 0.838125H742.579C755.077 0.838125 765.209 10.9696 765.209 23.4675V460.969C765.209 462.357 764.083 463.483 762.694 463.483H85.4895C84.1009 463.483 82.9752 462.357 82.9752 460.969V23.4675C82.9752 10.9696 93.1067 0.838125 105.605 0.838125Z" fill="#1A202C" stroke="#4A5568" stroke-width="1.67625"/>
<path id="Dark Screen" d="M86.3269 22.6292C86.3269 12.4458 94.5822 4.19043 104.766 4.19043H743.417C753.6 4.19043 761.855 12.4457 761.855 22.6292V446.72H86.3269V22.6292Z" fill="black"/>
<path id="Macbook Air" d="M397.088 455.558H396.167V448.76H397.182L399.334 453.73H399.359L401.505 448.76H402.521V455.558H401.595V450.762H401.555L399.732 454.895H398.95L397.123 450.762H397.088V455.558ZM406.968 454.91C406.676 455.398 406.18 455.642 405.479 455.642C404.968 455.642 404.555 455.498 404.239 455.209C403.924 454.917 403.766 454.53 403.766 454.049C403.766 453.577 403.925 453.207 404.244 452.938C404.563 452.669 405.019 452.533 405.614 452.53H406.963V452.017C406.963 451.698 406.874 451.454 406.694 451.285C406.518 451.115 406.266 451.031 405.937 451.031C405.629 451.031 405.385 451.104 405.205 451.25C405.029 451.396 404.93 451.593 404.907 451.842H403.96C403.987 451.361 404.168 450.971 404.503 450.672C404.839 450.373 405.327 450.224 405.967 450.224C406.562 450.224 407.043 450.375 407.412 450.677C407.78 450.979 407.964 451.408 407.964 451.962V455.558H407.003V454.91H406.968ZM405.773 454.85C406.115 454.85 406.399 454.754 406.625 454.562C406.85 454.369 406.963 454.122 406.963 453.82V453.227H405.753C405.428 453.227 405.184 453.297 405.021 453.436C404.862 453.576 404.782 453.763 404.782 453.999C404.782 454.271 404.878 454.482 405.071 454.631C405.263 454.777 405.498 454.85 405.773 454.85ZM409.16 453.152V452.664C409.16 451.937 409.359 451.348 409.757 450.896C410.159 450.445 410.703 450.219 411.391 450.219C411.992 450.219 412.478 450.385 412.85 450.717C413.225 451.049 413.424 451.446 413.447 451.907H412.481C412.428 451.675 412.307 451.477 412.118 451.315C411.932 451.152 411.709 451.071 411.45 451.071C411.049 451.071 410.735 451.215 410.509 451.504C410.283 451.789 410.17 452.184 410.17 452.689V453.157C410.17 453.655 410.287 454.052 410.519 454.347C410.752 454.643 411.064 454.791 411.455 454.791C411.754 454.791 411.993 454.719 412.172 454.577C412.355 454.434 412.47 454.251 412.516 454.029H413.477C413.401 454.533 413.183 454.93 412.825 455.219C412.466 455.504 411.988 455.647 411.391 455.647C410.929 455.647 410.527 455.539 410.185 455.324C409.847 455.108 409.591 454.814 409.419 454.442C409.246 454.067 409.16 453.637 409.16 453.152ZM417.192 455.637C416.475 455.637 415.957 455.345 415.639 454.761H415.604V455.558H414.628V448.401H415.634V451.041H415.668C415.801 450.802 416.005 450.607 416.281 450.458C416.56 450.305 416.865 450.229 417.197 450.229C417.818 450.229 418.316 450.443 418.691 450.871C419.067 451.3 419.254 451.902 419.254 452.679V453.177C419.254 453.937 419.067 454.538 418.691 454.98C418.32 455.418 417.82 455.637 417.192 455.637ZM416.988 454.791C417.363 454.791 417.664 454.646 417.89 454.357C418.119 454.065 418.233 453.657 418.233 453.132V452.734C418.233 452.209 418.119 451.803 417.89 451.514C417.664 451.222 417.363 451.076 416.988 451.076C416.56 451.076 416.225 451.218 415.982 451.504C415.743 451.789 415.624 452.199 415.624 452.734V453.122C415.624 453.66 415.743 454.074 415.982 454.362C416.221 454.648 416.557 454.791 416.988 454.791ZM422.596 450.219C423.32 450.219 423.882 450.45 424.284 450.911C424.689 451.369 424.892 451.965 424.892 452.699V453.142C424.892 453.893 424.691 454.499 424.289 454.96C423.887 455.418 423.323 455.647 422.596 455.647C421.865 455.647 421.298 455.418 420.893 454.96C420.488 454.499 420.285 453.893 420.285 453.142V452.704C420.285 451.97 420.488 451.373 420.893 450.911C421.301 450.45 421.869 450.219 422.596 450.219ZM423.547 451.499C423.325 451.197 423.006 451.046 422.591 451.046C422.176 451.046 421.855 451.197 421.63 451.499C421.407 451.801 421.296 452.209 421.296 452.724V453.127C421.296 453.639 421.407 454.047 421.63 454.352C421.855 454.658 422.176 454.811 422.591 454.811C423.009 454.811 423.328 454.66 423.547 454.357C423.769 454.052 423.881 453.642 423.881 453.127V452.724C423.881 452.209 423.769 451.801 423.547 451.499ZM428.233 450.219C428.957 450.219 429.52 450.45 429.921 450.911C430.327 451.369 430.529 451.965 430.529 452.699V453.142C430.529 453.893 430.328 454.499 429.926 454.96C429.525 455.418 428.96 455.647 428.233 455.647C427.503 455.647 426.935 455.418 426.53 454.96C426.125 454.499 425.922 453.893 425.922 453.142V452.704C425.922 451.97 426.125 451.373 426.53 450.911C426.938 450.45 427.506 450.219 428.233 450.219ZM429.184 451.499C428.962 451.197 428.643 451.046 428.228 451.046C427.813 451.046 427.493 451.197 427.267 451.499C427.045 451.801 426.933 452.209 426.933 452.724V453.127C426.933 453.639 427.045 454.047 427.267 454.352C427.493 454.658 427.813 454.811 428.228 454.811C428.647 454.811 428.965 454.66 429.184 454.357C429.407 454.052 429.518 453.642 429.518 453.127V452.724C429.518 452.209 429.407 451.801 429.184 451.499ZM432.79 453.695V455.558H431.784V448.401H432.79V452.575H432.835L434.802 450.309H436.012L433.99 452.585L436.142 455.558H434.926L433.238 453.197L432.79 453.695ZM439.264 455.558H438.208L440.579 448.76H441.694L444.065 455.558H442.979L442.342 453.61H439.902L439.264 455.558ZM441.142 449.875H441.107L440.146 452.814H442.098L441.142 449.875ZM444.951 455.558V450.309H445.957V455.558H444.951ZM445.021 449.452C444.902 449.339 444.842 449.198 444.842 449.029C444.842 448.859 444.902 448.718 445.021 448.605C445.141 448.493 445.285 448.436 445.454 448.436C445.624 448.436 445.768 448.493 445.888 448.605C446.007 448.718 446.067 448.859 446.067 449.029C446.067 449.198 446.007 449.339 445.888 449.452C445.768 449.565 445.624 449.621 445.454 449.621C445.285 449.621 445.141 449.565 445.021 449.452ZM447.461 455.558V450.309H448.467V450.976H448.502C448.588 450.78 448.738 450.607 448.95 450.458C449.166 450.305 449.44 450.229 449.772 450.229C449.892 450.229 450.009 450.237 450.126 450.254V451.155C450.029 451.135 449.88 451.125 449.677 451.125C448.877 451.125 448.477 451.547 448.477 452.39V455.558H447.461Z" fill="#A0AEC0"/>
</g>
<g id="Bottom">
<g id="Base">
<path d="M0 462.646C0 461.72 0.750482 460.969 1.67625 460.969H843.153C844.079 460.969 844.83 461.72 844.83 462.646V465.998H0V462.646Z" fill="#A3ACB1"/>
<path d="M0 462.646C0 461.72 0.750482 460.969 1.67625 460.969H843.153C844.079 460.969 844.83 461.72 844.83 462.646V465.998H0V462.646Z" fill="url(#paint0_linear)"/>
</g>
<g id="Bottom Curve">
<path d="M0 465.996H844.83L827.77 469.437C805.952 473.837 783.749 476.054 761.491 476.054H82.0599C57.5992 476.054 33.2121 473.377 9.33395 468.071L0 465.996Z" fill="#647279"/>
<path d="M0 465.996H844.83L827.77 469.437C805.952 473.837 783.749 476.054 761.491 476.054H82.0599C57.5992 476.054 33.2121 473.377 9.33395 468.071L0 465.996Z" fill="url(#paint1_linear)"/>
</g>
<g id="Groove">
<path fill-rule="evenodd" clip-rule="evenodd" d="M360.421 460.967C360.852 463.776 358.761 465.996 365.422 465.996H480.245C486.907 465.996 484.815 463.776 485.247 460.967H360.421Z" fill="#96A1A8"/>
<path fill-rule="evenodd" clip-rule="evenodd" d="M360.421 460.967C360.852 463.776 358.761 465.996 365.422 465.996H480.245C486.907 465.996 484.815 463.776 485.247 460.967H360.421Z" fill="url(#paint2_linear)"/>
</g>
</g>
</g>
<defs>
<linearGradient id="paint0_linear" x1="-1.62975e-10" y1="463.484" x2="844.83" y2="463.484" gradientUnits="userSpaceOnUse">
<stop stop-color="#0D1012"/>
<stop offset="0.0295345" stop-color="#CAD4DB"/>
<stop offset="0.0625" stop-color="#242729"/>
<stop offset="0.133609" stop-color="#A3ACB1"/>
<stop offset="0.865967" stop-color="#A3ACB1"/>
<stop offset="0.941937" stop-color="#242729"/>
<stop offset="0.971275" stop-color="#CAD4DB"/>
<stop offset="0.996436" stop-color="#0D1012"/>
</linearGradient>
<linearGradient id="paint1_linear" x1="422.415" y1="465.996" x2="422.415" y2="476.054" gradientUnits="userSpaceOnUse">
<stop stop-color="#7A7F83"/>
<stop offset="1" stop-color="#0B0B0E"/>
</linearGradient>
<linearGradient id="paint2_linear" x1="366.68" y1="464.021" x2="481.503" y2="464.021" gradientUnits="userSpaceOnUse">
<stop stop-color="#3C3C3C"/>
<stop offset="0.317518" stop-color="#3C3C3C" stop-opacity="0"/>
<stop offset="0.660584" stop-color="#3C3C3C" stop-opacity="0"/>
<stop offset="1" stop-color="#444444"/>
</linearGradient>
</defs>
</svg>
