<svg xmlns="http://www.w3.org/2000/svg" viewBox="0 0 320 220" fill="none" role="img" aria-hidden="true">
  <rect x="36" y="44" width="96" height="72" rx="12" stroke="rgba(255,255,255,0.55)" stroke-width="1.5"/>
  <rect x="52" y="60" width="64" height="8" rx="4" stroke="rgba(255,255,255,0.55)" stroke-width="1.5"/>
  <rect x="52" y="76" width="48" height="6" rx="3" stroke="rgba(255,255,255,0.4)" stroke-width="1.5"/>
  <rect x="52" y="90" width="56" height="6" rx="3" stroke="rgba(255,255,255,0.4)" stroke-width="1.5"/>
  <rect x="188" y="44" width="96" height="72" rx="12" stroke="rgba(255,255,255,0.55)" stroke-width="1.5"/>
  <rect x="204" y="60" width="64" height="8" rx="4" stroke="rgba(255,255,255,0.55)" stroke-width="1.5"/>
  <rect x="204" y="76" width="40" height="6" rx="3" stroke="rgba(255,255,255,0.4)" stroke-width="1.5"/>
  <rect x="204" y="90" width="52" height="6" rx="3" stroke="rgba(255,255,255,0.4)" stroke-width="1.5"/>
  <path d="M132 80H188" stroke="rgba(255,255,255,0.55)" stroke-width="1.5" stroke-linecap="round"/>
  <path d="M176 72L188 80L176 88" stroke="rgba(255,255,255,0.55)" stroke-width="1.5" stroke-linecap="round" stroke-linejoin="round"/>
  <path d="M152 80H96" stroke="rgba(255,255,255,0.55)" stroke-width="1.5" stroke-linecap="round"/>
  <path d="M108 72L96 80L108 88" stroke="rgba(255,255,255,0.55)" stroke-width="1.5" stroke-linecap="round" stroke-linejoin="round"/>
  <rect x="72" y="136" width="176" height="44" rx="12" stroke="rgba(255,255,255,0.45)" stroke-width="1.5"/>
  <rect x="88" y="152" width="72" height="8" rx="4" stroke="rgba(255,255,255,0.55)" stroke-width="1.5"/>
  <rect x="168" y="152" width="56" height="8" rx="4" stroke="rgba(255,255,255,0.4)" stroke-width="1.5"/>
</svg>
