<svg width="46" height="47" viewBox="0 0 46 47" fill="none" xmlns="http://www.w3.org/2000/svg">
<path fill-rule="evenodd" clip-rule="evenodd" d="M30.0678 0.666016H15.9562C3.06661 0.666016 0 3.73263 0 16.5983V30.7098C0 43.5993 3.04276 46.666 15.9322 46.666H30.0438C42.9334 46.666 46 43.6232 46 30.7336V16.6223C46 3.73263 42.9572 0.666016 30.0678 0.666016ZM8.45882 22.1266L34.5992 12.0464C35.792 11.5068 36.9449 12.3339 36.4893 14.1606L32.0382 35.1378C31.7271 36.6298 30.8293 36.9837 29.579 36.2952L22.7984 31.2868L19.5386 34.4566C19.5265 34.4684 19.5144 34.4801 19.5024 34.4917C19.1387 34.8433 18.8372 35.1348 18.1807 35.1348L18.6437 28.2171L18.6407 28.2157H18.6437L31.2244 16.8616C31.7758 16.3722 31.105 16.1318 30.3707 16.5786L14.8428 26.3757L8.13151 24.2821C6.68516 23.8383 6.67484 22.8431 8.45882 22.1266Z" fill="white"/>
</svg>
