<svg width="47" height="46" viewBox="0 0 47 46" fill="none" xmlns="http://www.w3.org/2000/svg">
<path d="M30.6486 30.0199C31.1228 29.6831 31.5218 29.2495 31.8197 28.747V28.678C32.0228 28.1034 32.0776 27.486 31.979 26.884C31.8869 26.735 31.7052 26.6463 31.422 26.508C31.3555 26.4756 31.2834 26.4404 31.2055 26.401C30.796 26.194 28.7712 25.205 28.4072 25.067C28.0432 24.929 27.7702 24.86 27.4972 25.274C27.2242 25.688 26.428 26.7 26.2005 26.884C25.973 27.068 25.7227 27.091 25.3132 26.884C24.1141 26.3949 23.0062 25.7026 22.0372 24.837C21.1474 24.0017 20.3812 23.0411 19.7622 21.985C19.5347 21.571 19.7622 21.341 19.9442 21.157C20.0841 21.0156 20.2508 20.8063 20.4134 20.6021C20.4624 20.5406 20.5111 20.4796 20.5585 20.421C20.7293 20.2137 20.8674 19.9809 20.968 19.731C21.0239 19.6207 21.053 19.4985 21.053 19.3745C21.053 19.2505 21.0239 19.1283 20.968 19.018C20.9105 18.9134 20.6672 18.3157 20.3995 17.6579C20.1373 17.0137 19.8516 16.3118 19.694 15.959C19.3755 15.246 19.0342 15.246 18.784 15.246H18.147C17.9401 15.2484 17.736 15.2947 17.5479 15.3818C17.3598 15.469 17.1919 15.5951 17.055 15.752C16.5903 16.1934 16.2226 16.7287 15.9757 17.323C15.7288 17.9173 15.6082 18.5575 15.6217 19.202C15.7541 20.7535 16.3313 22.2322 17.2825 23.457C19.033 26.1006 21.4315 28.2402 24.244 29.667C24.9843 30.0042 25.744 30.296 26.519 30.541C27.3427 30.8037 28.2174 30.859 29.067 30.702C29.6356 30.589 30.1744 30.3566 30.6486 30.0199Z" fill="white"/>
<path fill-rule="evenodd" clip-rule="evenodd" d="M46.084 16.2062C46.084 3.31661 43.0743 0.25 30.3249 0.25H16.3668C3.61727 0.25 0.583984 3.31661 0.583984 16.1822V30.2938C0.583984 43.1832 3.59367 46.25 16.343 46.25H30.3012C43.0507 46.25 46.084 43.2072 46.084 30.3176V16.2062ZM16.054 37.28C18.4408 38.6243 21.1251 39.3364 23.8572 39.35C27.081 39.3273 30.2261 38.3406 32.8963 36.5143C35.5665 34.688 37.6424 32.1038 38.8627 29.087C40.0829 26.0702 40.3928 22.7558 39.7534 19.5612C39.1141 16.3667 37.554 13.4349 35.2696 11.135C32.9853 8.83512 30.0788 7.27007 26.9164 6.63696C23.7539 6.00384 20.4769 6.33097 17.498 7.57715C14.5191 8.82332 11.9715 10.9328 10.1762 13.6399C8.38087 16.347 7.41804 19.5307 7.40898 22.79C7.4317 25.6901 8.21687 28.5318 9.68398 31.024L7.40898 39.58L16.054 37.28Z" fill="white"/>
</svg>
