<svg xmlns="http://www.w3.org/2000/svg">

  <symbol id="videoPlay">
    <path d="M66 39L-3.58893e-06 77.1051L-2.57673e-07 0.894879L66 39Z"/>
  </symbol>

  <symbol id="videoStop">
    <rect width="19" height="62"/>
    <rect x="30" width="19" height="62" />
  </symbol>
  <defs>
    <filter id="arrowshadow" height="130%">
      <feGaussianBlur in="SourceAlpha" stdDeviation="3"/> <!-- stdDeviation is how much to blur -->
      <feOffset dx="2" dy="2" result="offsetblur"/> <!-- how much to offset -->
      <feComponentTransfer>
        <feFuncA type="linear" slope="0.5"/> <!-- slope is the opacity of the shadow -->
      </feComponentTransfer>
      <feMerge>
        <feMergeNode/> <!-- this contains the offset blurred image -->
        <feMergeNode in="SourceGraphic"/> <!-- this contains the element that the filter is applied to -->
      </feMerge>
    </filter>
  </defs>
  <symbol id="swiperArrowPrev">
    <path d="M20 38L3 20.5L20 3" stroke-width="5" stroke-linecap="round" stroke-linejoin="round"/>
  </symbol>
  <symbol id="swiperArrowNext">
    <path d="M3 3L20 20.5L3 38" stroke-width="5" stroke-linecap="round" stroke-linejoin="round"/>
  </symbol>

  <svg id="mail" width="28" height="20" viewBox="0 0 28 20" fill="none" xmlns="http://www.w3.org/2000/svg">
    <path d="M24.5818 0H3.42396C1.53528 0 0 1.441 0 3.2137V16.7863C0 18.559 1.53528 20 3.42396 20H24.576C26.4647 20 28 18.559 28 16.7863V3.21914C28.0058 1.44644 26.4705 0 24.5818 0ZM26.4415 16.7863C26.4415 17.7488 25.6073 18.5318 24.5818 18.5318H3.42396C2.39851 18.5318 1.56424 17.7488 1.56424 16.7863V3.21914C1.56424 2.25666 2.39851 1.47363 3.42396 1.47363H24.576C25.6015 1.47363 26.4357 2.25666 26.4357 3.21914V16.7863H26.4415Z" fill="black"/>
    <path d="M17.3918 9.83261L23.7477 4.24626C24.0435 3.98276 24.0703 3.53479 23.8015 3.23967C23.5326 2.94981 23.0756 2.92346 22.7744 3.18696L14.0096 10.8972L12.2996 9.40046C12.2942 9.39519 12.2889 9.38992 12.2889 9.38465C12.2512 9.34776 12.2136 9.31614 12.1706 9.28452L5.21243 3.18169C4.91131 2.91819 4.45425 2.94454 4.18539 3.23967C3.91653 3.53479 3.94341 3.98276 4.24454 4.24626L10.6757 9.88004L4.27142 15.7562C3.98105 16.025 3.96492 16.473 4.23916 16.7628C4.38434 16.9104 4.57792 16.9895 4.7715 16.9895C4.94895 16.9895 5.1264 16.9262 5.26621 16.7997L11.7673 10.8392L13.531 12.3834C13.6708 12.5046 13.8429 12.5625 14.0149 12.5625C14.187 12.5625 14.3645 12.4993 14.4989 12.3781L16.311 10.7865L22.7744 16.805C22.9142 16.9368 23.0971 17 23.2745 17C23.4681 17 23.6563 16.9262 23.8015 16.7787C24.0757 16.4941 24.065 16.0408 23.7746 15.7721L17.3918 9.83261Z" fill="black"/>
  </svg>

  <svg id="call" width="25" height="25" viewBox="0 0 25 25" fill="none" xmlns="http://www.w3.org/2000/svg">
    <path d="M20.5293 14.6022C19.997 14.048 19.355 13.7516 18.6745 13.7516C17.9996 13.7516 17.352 14.0425 16.7978 14.5967L15.0638 16.3253C14.9211 16.2484 14.7784 16.1771 14.6412 16.1058C14.4437 16.007 14.2571 15.9137 14.098 15.8149C12.4737 14.7833 10.9975 13.4388 9.58177 11.6993C8.89583 10.8323 8.43488 10.1025 8.10015 9.36165C8.55012 8.95009 8.96717 8.52206 9.37324 8.1105C9.52689 7.95685 9.68054 7.79771 9.83419 7.64406C10.9866 6.49169 10.9866 4.9991 9.83419 3.84673L8.33611 2.34864C8.166 2.17853 7.9904 2.00293 7.82577 1.82733C7.49653 1.48711 7.15081 1.13591 6.79413 0.80666C6.26184 0.279862 5.6253 0 4.95582 0C4.28635 0 3.63883 0.279862 3.09008 0.80666C3.08459 0.812147 3.08459 0.812148 3.07911 0.817635L1.21336 2.69984C0.510966 3.40224 0.11038 4.25829 0.0225802 5.25152C-0.109119 6.85387 0.362804 8.34646 0.724977 9.32323C1.61395 11.7213 2.94192 13.9437 4.9229 16.3253C7.32641 19.1952 10.2183 21.4615 13.5218 23.0584C14.7839 23.6565 16.4686 24.3644 18.3508 24.4852C18.466 24.4906 18.5867 24.4961 18.6965 24.4961C19.9641 24.4961 21.0286 24.0407 21.8627 23.1352C21.8682 23.1243 21.8792 23.1188 21.8847 23.1078C22.17 22.7621 22.4993 22.4493 22.845 22.1146C23.081 21.8896 23.3224 21.6536 23.5584 21.4067C24.1016 20.8415 24.387 20.183 24.387 19.508C24.387 18.8276 24.0961 18.1745 23.5419 17.6258L20.5293 14.6022ZM22.4938 20.3805C22.4883 20.386 22.4883 20.3805 22.4938 20.3805C22.2798 20.611 22.0603 20.8195 21.8243 21.05C21.4676 21.3902 21.1055 21.7469 20.7652 22.1475C20.211 22.7401 19.558 23.02 18.702 23.02C18.6196 23.02 18.5318 23.02 18.4495 23.0145C16.8198 22.9102 15.3052 22.2737 14.1693 21.7304C11.0634 20.2269 8.33611 18.0922 6.06978 15.3869C4.19855 13.1315 2.94741 11.0463 2.1188 8.80741C1.60846 7.44103 1.42189 6.37646 1.5042 5.37225C1.55907 4.73021 1.80601 4.19793 2.26147 3.74246L4.1327 1.87123C4.40159 1.61881 4.68694 1.48162 4.9668 1.48162C5.31251 1.48162 5.59237 1.69015 5.76797 1.86574C5.77346 1.87123 5.77894 1.87672 5.78443 1.88221C6.11917 2.19499 6.43744 2.51876 6.77218 2.86447C6.94229 3.04007 7.11789 3.21567 7.29349 3.39675L8.79157 4.89484C9.37324 5.47651 9.37324 6.01428 8.79157 6.59596C8.63243 6.75509 8.47878 6.91423 8.31965 7.06788C7.8587 7.5398 7.4197 7.9788 6.94229 8.40682C6.93132 8.4178 6.92034 8.42329 6.91485 8.43426C6.44293 8.90619 6.53073 9.36713 6.6295 9.67992C6.63499 9.69638 6.64048 9.71285 6.64597 9.72931C7.03558 10.6732 7.58433 11.5621 8.41842 12.6212L8.42391 12.6267C9.93845 14.4924 11.5353 15.9466 13.2968 17.0606C13.5218 17.2033 13.7522 17.3185 13.9717 17.4282C14.1693 17.527 14.3559 17.6203 14.515 17.7191C14.537 17.7301 14.5589 17.7465 14.5809 17.7575C14.7674 17.8508 14.943 17.8947 15.1241 17.8947C15.5796 17.8947 15.8649 17.6093 15.9582 17.516L17.8349 15.6393C18.0215 15.4528 18.3178 15.2278 18.6635 15.2278C19.0038 15.2278 19.2836 15.4418 19.4537 15.6284C19.4592 15.6338 19.4592 15.6338 19.4647 15.6393L22.4883 18.6629C23.0535 19.2227 23.0535 19.7988 22.4938 20.3805Z" fill="black"/>
  </svg>


  <symbol id="serenity-logo">
    <g>
      <g>
        <path d="M14.2,16.2c1.8,0,3.6,0.2,5.2,0.6c1.6,0.4,3.3,1.1,5.1,2v7c-1.7-1.1-3.5-1.9-5.4-2.6c-1.9-0.7-3.6-1-5.1-1
			c-1.3,0-2.3,0.2-3,0.7c-0.7,0.5-1.1,1.2-1.1,2c0,0.5,0.3,1,0.9,1.5c0.6,0.5,2.2,1.4,4.9,2.8c3.8,1.9,6.5,3.7,8,5.3
			c1.5,1.6,2.3,3.6,2.3,5.9c0,3.2-1.1,5.7-3.4,7.6c-2.2,1.8-5.3,2.8-9.1,2.8c-2.4,0-4.6-0.3-6.7-0.8c-2.1-0.5-3.8-1.2-5.1-1.9v-7.3
			c4.3,2.4,7.9,3.6,10.8,3.6c1.5,0,2.7-0.3,3.6-0.8c0.9-0.5,1.4-1.2,1.4-2.1c0-0.5-0.2-1-0.5-1.4c-0.3-0.4-0.8-0.9-1.5-1.3
			c-0.7-0.5-2.8-1.5-6.3-3.3c-2.7-1.3-4.7-2.7-6-4.2c-1.3-1.5-1.9-3.3-1.9-5.4c0-3,1.2-5.3,3.5-7.1C7.4,17,10.5,16.2,14.2,16.2"/>
        <path d="M46.8,16.2c4.9,0,8.8,1.6,11.7,4.7c2.9,3.1,4.3,7.5,4.3,13v1.3H39.1c0.4,3,1.5,5.3,3.3,6.9c1.9,1.6,4.4,2.4,7.7,2.4
			c2.1,0,4.1-0.4,6.1-1.1s4-1.8,6-3.3v6.5c-3.9,2.8-8.7,4.1-14.2,4.1c-5.3,0-9.6-1.6-12.9-4.8c-3.3-3.2-5-7.4-5-12.7
			c0-5.1,1.5-9.2,4.6-12.4S41.8,16.2,46.8,16.2 M54.4,29.9c-0.2-2.4-1-4.3-2.2-5.7c-1.2-1.4-2.9-2.1-5.1-2.1c-2.2,0-4,0.7-5.3,2
			c-1.3,1.3-2.2,3.2-2.6,5.8H54.4z"/>
        <path d="M92.3,17.9c-0.6-0.4-1.1-0.7-1.6-0.9c-1.1-0.5-2.3-0.8-3.5-0.8c-1.9,0-3.7,0.7-5.3,2.2c-1.6,1.4-3.2,3.8-4.8,7h-0.1v-8.5
			h-8.8v33.4h8.8V35c0-1.7,0.4-3.3,1.2-5c0.8-1.7,1.9-3,3.2-4c1.3-1,2.7-1.5,4-1.5c1.1,0,2.5,0.5,4.1,1.5L92.3,17.9z"/>
        <path d="M149.3,16.2c3.6,0,6.4,1.2,8.6,3.5C160,22,161,25.1,161,29v21.2h-8.8V29.9c0-2.2-0.5-3.9-1.6-5.1c-1-1.3-2.4-1.9-4.2-1.9
			c-1.4,0-2.6,0.4-3.8,1.2c-1.2,0.8-2.5,2.1-3.9,4v22.2h-8.8V16.8h8.8v4.7c1.6-1.9,3.3-3.3,5-4.1C145.4,16.6,147.3,16.2,149.3,16.2"
        />
        <path d="M193.1,7.9h0.7v8.9h16.6v6.7h-16.6v15.4c0,1.5,0.5,2.7,1.4,3.6c0.9,0.9,2.1,1.4,3.7,1.4c2,0,4.4-0.7,7.1-2.2v7
			c-3.2,1.4-6.1,2.1-8.9,2.1c-3.8,0-6.7-1-8.8-3.1c-2.1-2.1-3.2-4.8-3.2-8.3v-16h-5.2V22L193.1,7.9z"/>
        <polygon points="213.7,16.8 221.6,34.8 229.6,16.8 239,16.8 215.9,67 206.5,67 217.1,44.1 204.1,16.8 		"/>
        <path d="M109.6,16.2c4.9,0,8.8,1.6,11.7,4.7c2.9,3.1,4.3,7.5,4.3,13v1.3h-23.6c0.4,3,1.5,5.3,3.3,6.9c1.9,1.6,4.4,2.4,7.7,2.4
			c2.1,0,4.1-0.4,6.1-1.1c1.9-0.7,4-1.8,6-3.3v6.5c-3.9,2.8-8.7,4.1-14.2,4.1c-5.3,0-9.6-1.6-12.9-4.8c-3.3-3.2-5-7.4-5-12.7
			c0-5.1,1.5-9.2,4.6-12.4S104.6,16.2,109.6,16.2 M117.2,29.9c-0.2-2.4-1-4.3-2.2-5.7c-1.2-1.4-2.9-2.1-5.1-2.1c-2.2,0-4,0.7-5.3,2
			c-1.3,1.3-2.2,3.2-2.6,5.8H117.2z"/>
        <path d="M171.2,1.4c1.4,0,2.5,0.5,3.5,1.5c1,1,1.5,2.1,1.5,3.5c0,1.3-0.5,2.5-1.4,3.5c-1,1-2.1,1.5-3.5,1.5
			c-1.3,0-2.5-0.5-3.5-1.5c-1-1-1.5-2.2-1.5-3.5c0-1.4,0.5-2.6,1.5-3.5C168.7,1.8,169.9,1.4,171.2,1.4 M175.6,50.2h-8.8V16.8h8.8
			V50.2z"/>
      </g>
    </g>
    <g id="Слой_2">
    </g>
    <g id="Слой_3">
    </g>
  </symbol>

  <symbol id="youtube" class="social-item">
    <rect x="0.25" y="0.25" width="29.5" height="29.5" rx="2.75" stroke="#AEAFAF" stroke-opacity="0.5" stroke-width="0.5"/>
    <path d="M14.9944 9C14.9944 9 9.36868 9 7.9567 9.34952C7.20067 9.55076 6.57815 10.1438 6.3669 10.8746C6.00001 12.2197 6 15.0053 6 15.0053C6 15.0053 6.00001 17.8015 6.3669 19.1254C6.57815 19.8562 7.18956 20.4386 7.9567 20.6399C9.3798 21 14.9944 21 14.9944 21C14.9944 21 20.6313 21 22.0433 20.6505C22.8104 20.4492 23.4218 19.8774 23.6219 19.136C24 17.8015 24 15.0159 24 15.0159C24 15.0159 24.0111 12.2197 23.6219 10.8746C23.4218 10.1438 22.8104 9.56136 22.0433 9.37072C20.6313 9.00002 14.9944 9 14.9944 9ZM13.2044 12.4316L17.8851 15.0053L13.2044 17.5684V12.4316Z" fill="#AEAFAF"/>
  </symbol>
  <symbol id="fb">
    <rect x="0.25" y="0.25" width="29.5" height="29.5" rx="2.75" stroke="#AEAFAF" stroke-opacity="0.5" stroke-width="0.5"/>
    <path d="M13 13H11V15.5H13V23H16.3333V15.5H18.7613L19 13H16.3333V11.9581C16.3333 11.3613 16.4613 11.125 17.0767 11.125H19V8H16.4613C14.064 8 13 8.98937 13 10.8844V13Z" fill="#AEAFAF"/>
  </symbol>
  <symbol id="insta">
    <rect x="0.25" y="0.25" width="29.5" height="29.5" rx="2.75" stroke="#AEAFAF" stroke-opacity="0.5" stroke-width="0.5"/>
    <path d="M14.9964 8.91504C11.6411 8.91504 8.91553 11.6364 8.91553 14.9971C8.91553 18.3577 11.6411 21.0791 14.9964 21.0791C18.3516 21.0791 21.0772 18.353 21.0772 14.9971C21.0772 11.6411 18.3516 8.91504 14.9964 8.91504ZM14.9964 18.9452C12.8159 18.9452 11.049 17.178 11.049 14.9971C11.049 12.8162 12.8159 11.0489 14.9964 11.0489C17.1768 11.0489 18.9437 12.8162 18.9437 14.9971C18.9437 17.178 17.1768 18.9452 14.9964 18.9452Z" fill="#AEAFAF"/>
    <path d="M21.3152 10.0948C22.099 10.0948 22.7343 9.45926 22.7343 8.67531C22.7343 7.89137 22.099 7.25586 21.3152 7.25586C20.5314 7.25586 19.896 7.89137 19.896 8.67531C19.896 9.45926 20.5314 10.0948 21.3152 10.0948Z" fill="#AEAFAF"/>
  </symbol>
  <symbol id="vk">
    <path d="M24.3694 19.2615C24.3465 19.2179 24.3236 19.1811 24.3044 19.1509C23.9641 18.6151 23.3141 17.9587 22.3581 17.1784L22.339 17.1616L22.3275 17.1516L22.316 17.1415H22.3046C21.8686 16.7798 21.5933 16.5354 21.4786 16.4081C21.2683 16.1703 21.2186 15.9292 21.3371 15.6847C21.4174 15.5005 21.7233 15.112 22.2548 14.5159C22.534 14.2011 22.7558 13.9466 22.9164 13.7557C24.0903 12.3859 24.6027 11.5119 24.4459 11.1301L24.3847 11.0396C24.3427 10.9861 24.2394 10.9358 24.0674 10.8923C23.8991 10.8487 23.6811 10.8387 23.4135 10.8688L20.4768 10.8856C20.4309 10.8722 20.362 10.8722 20.2741 10.8889C20.1861 10.9057 20.1403 10.9157 20.1403 10.9157L20.0905 10.9392L20.0485 10.966C20.0141 10.9827 19.9758 11.0162 19.9376 11.0597C19.8955 11.1033 19.8649 11.1569 19.8343 11.2171C19.5131 11.9372 19.1499 12.607 18.7445 13.2265C18.4922 13.5949 18.2627 13.9164 18.0524 14.1877C17.8421 14.459 17.6662 14.6566 17.5209 14.7872C17.3794 14.9144 17.2494 15.0183 17.1347 15.0953C17.02 15.1723 16.932 15.2058 16.8709 15.1924C16.8097 15.179 16.7523 15.169 16.6988 15.1556C16.6032 15.102 16.5267 15.0283 16.4694 14.9379C16.412 14.8441 16.3738 14.7303 16.3508 14.5896C16.3317 14.4489 16.3202 14.3284 16.3164 14.2279C16.3126 14.1274 16.3164 13.9834 16.3202 13.7992C16.3279 13.615 16.3317 13.4911 16.3317 13.4241C16.3317 13.1964 16.3355 12.9519 16.347 12.6874C16.3585 12.4228 16.3661 12.2118 16.3738 12.0577C16.3814 11.9037 16.3852 11.7396 16.3852 11.5654C16.3852 11.3913 16.3738 11.2573 16.3508 11.1602C16.3279 11.0631 16.2896 10.966 16.2437 10.8755C16.1979 10.7818 16.1252 10.7114 16.0334 10.6612C15.9417 10.611 15.8269 10.5708 15.6931 10.5406C15.3337 10.4703 14.8748 10.4301 14.3165 10.4234C13.0508 10.41 12.2402 10.4837 11.8807 10.6378C11.7392 10.7047 11.6092 10.7918 11.4945 10.9057C11.3721 11.0363 11.3569 11.1066 11.4448 11.12C11.854 11.1736 12.1407 11.3009 12.3128 11.5052L12.374 11.6123C12.4199 11.6893 12.4696 11.8267 12.5155 12.0243C12.5614 12.2218 12.592 12.4395 12.6073 12.6773C12.6417 13.1127 12.6417 13.4844 12.6073 13.7925C12.5728 14.1006 12.5422 14.3418 12.5117 14.5159C12.4811 14.6901 12.4352 14.8274 12.374 14.9345C12.3128 15.0417 12.2708 15.1087 12.2516 15.1321C12.2325 15.1556 12.2134 15.1723 12.2019 15.1757C12.114 15.2058 12.0222 15.2192 11.9266 15.2192C11.831 15.2192 11.7163 15.179 11.5786 15.0953C11.441 15.0116 11.3033 14.8977 11.1542 14.7503C11.0089 14.603 10.8445 14.402 10.6609 14.1375C10.4774 13.8763 10.2862 13.5648 10.0912 13.2098L9.92673 12.9519C9.82348 12.7845 9.68583 12.5433 9.50993 12.2252C9.33403 11.907 9.17725 11.5989 9.03959 11.3009C8.98606 11.177 8.90194 11.0798 8.79487 11.0162L8.74516 10.9894C8.71074 10.966 8.65721 10.9392 8.58073 10.9124C8.50425 10.8856 8.42778 10.8655 8.34748 10.8554L5.55606 10.8722C5.26927 10.8722 5.07808 10.9291 4.97483 11.043L4.92512 11.0966C4.906 11.1267 4.89453 11.1736 4.89453 11.2406C4.89453 11.3076 4.91365 11.3879 4.95571 11.4817C5.36487 12.3223 5.80843 13.1294 6.28642 13.9097C6.7644 14.6901 7.1812 15.3163 7.53682 15.7919C7.88861 16.2674 8.25188 16.7162 8.61897 17.1415C8.98606 17.5635 9.23079 17.8348 9.34933 17.9553C9.46787 18.0759 9.56346 18.163 9.62847 18.2233L9.88467 18.4376C10.0491 18.5816 10.2862 18.7524 10.6036 18.95C10.9209 19.1509 11.2689 19.3452 11.6551 19.5394C12.0375 19.7337 12.4849 19.8911 12.9973 20.0116C13.5059 20.1322 14.003 20.1824 14.4848 20.159H15.6587C15.8958 20.1423 16.0755 20.0753 16.1979 19.9614L16.2399 19.9179C16.2667 19.881 16.2935 19.8274 16.3164 19.7538C16.3393 19.6801 16.3508 19.5964 16.3508 19.5093C16.3432 19.2548 16.3661 19.0237 16.4158 18.816C16.4655 18.6118 16.5229 18.4577 16.5879 18.3505C16.6529 18.2467 16.7255 18.1596 16.8059 18.086C16.8862 18.0156 16.9435 17.9721 16.9779 17.9553C17.0123 17.942 17.0391 17.9286 17.0582 17.9252C17.2227 17.8783 17.4138 17.9252 17.6356 18.0625C17.8574 18.2032 18.0639 18.374 18.2589 18.5816C18.4539 18.7859 18.6872 19.017 18.9587 19.2749C19.2302 19.5294 19.4673 19.7203 19.6737 19.8475L19.8764 19.9547C20.0141 20.025 20.19 20.092 20.4079 20.1523C20.6259 20.2126 20.8171 20.226 20.9777 20.1958L23.5856 20.159C23.8417 20.159 24.0444 20.1222 24.1859 20.0485C24.3274 19.9748 24.4153 19.8911 24.4421 19.804C24.4689 19.7136 24.4727 19.6131 24.4459 19.4992C24.4153 19.382 24.3924 19.305 24.3694 19.2615Z" fill="#AEAFAF"/>
    <rect x="0.25" y="0.25" width="29.5" height="29.5" rx="2.75" stroke="#AEAFAF" stroke-opacity="0.5" stroke-width="0.5"/>
  </symbol>


  <symbol id="arrow">
        <path d="M0 0L5 4L10 0" transform="translate(1 1)" stroke="white"
              stroke-width="2"/>
    </symbol>

    <symbol id="arrow2">
        <path d="M1 1L5 5L1 9" stroke="#fff" stroke-width="2"/>
    </symbol>
    <symbol id="arrow3">
        <path d="M1 1L5 5L1 9" stroke-width="2"/>
    </symbol>


  <defs>
    <filter id="shadow" x="0" y="0" width="512" height="512" filterUnits="userSpaceOnUse" color-interpolation-filters="sRGB">
      <feFlood flood-opacity=".5" result="BackgroundImageFix"/>
      <feColorMatrix in="SourceAlpha" type="matrix" values="0 0 0 0 0 0 0 0 0 0 0 0 0 0 0 0 0 0 127 0"/>
      <feOffset/>
      <feGaussianBlur stdDeviation="9"/>
      <feColorMatrix type="matrix" values="0 0 0 0 1 0 0 0 0 1 0 0 0 0 1 0 0 0 0.75 0"/>
      <feBlend mode="normal" in2="BackgroundImageFix" result="effect1_dropShadow"/>
      <feBlend mode="normal" in="SourceGraphic" in2="effect1_dropShadow" result="shape"/>
    </filter>
  </defs>


  <symbol id="advertCircle">
    <circle cx="256" cy="256" r="237.5" stroke="white" stroke-opacity="0.2"/>
    <circle cx="256" cy="256" r="197.649" stroke="white" stroke-opacity="0.2"/>
    <circle cx="256" cy="256" r="154.477" stroke="white" stroke-opacity="0.2"/>
    <circle cx="256" cy="256" r="112.412" stroke="white" stroke-opacity="0.2"/>
    <circle cx="256" cy="256" r="60.3837" stroke="white" stroke-opacity="0.2"/>
    <circle cx="256" cy="256" r="22.7465" stroke="white" stroke-opacity="0.2"/>
  </symbol>

  <symbol id="inputFile">
    <path d="M8.5 3.5L5.5 1H0.5V14H15.5V3.5H8.5Z"/>
  </symbol>



  <symbol id="awardsz" width="170" height="150" viewBox="0 0 170 150">
    <path d="M79.9406 130.928C79.9406 130.928 77.7796 137.437 64.7445 138.84C51.7094 140.246 46.1484 137.437 46.1484 137.437C46.1484 137.437 54.8384 130.59 63.1809 130.237C71.523 129.885 79.9406 130.928 79.9406 130.928Z" />
    <path d="M79.9408 130.928C79.9408 130.928 80.9219 124.119 70.127 116.604C59.3302 109.09 53.1152 108.881 53.1152 108.881C53.1152 108.881 56.6824 118.159 65.3703 123.591C72.4706 128.03 79.9408 130.928 79.9408 130.928Z" />
    <path d="M64.4838 126.107C64.4838 126.107 57.8368 123.075 47.7992 123.075C37.7617 123.075 30.2031 128.346 30.2031 128.346C30.2031 128.346 37.6321 131.374 48.3216 131.374C59.0094 131.375 64.4838 126.107 64.4838 126.107Z" />
    <path d="M52.1969 119.654C52.1969 119.654 51.6576 112.303 46.8671 103.392C42.0768 94.4761 33.8867 90.2783 33.8867 90.2783C33.8867 90.2783 34.798 98.3226 39.9007 107.815C45.0029 117.306 52.1969 119.654 52.1969 119.654Z" />
    <path d="M47.1848 118.737C47.1848 118.737 41.4248 114.216 31.6672 111.842C21.9097 109.467 13.3398 112.8 13.3398 112.8C13.3398 112.8 19.8613 117.507 30.2539 120.036C40.6429 122.564 47.1848 118.737 47.1848 118.737Z" />
    <path d="M38.5468 110.9C38.5468 110.9 34.961 104.484 26.8687 98.4819C18.7762 92.4798 9.59961 92.207 9.59961 92.207C9.59961 92.207 13.8167 99.0916 22.4316 105.484C31.0482 111.876 38.5468 110.9 38.5468 110.9Z" />
    <path d="M29.9719 97.7022C29.9719 97.7022 32.4003 91.1328 31.7649 81.505C31.1313 71.8754 25.7059 64.9541 25.7059 64.9541C25.7059 64.9541 23.3266 72.2741 24.0014 82.5311C24.6778 92.7819 29.9719 97.7022 29.9719 97.7022Z" />
    <path d="M23.1628 91.4793C23.1628 91.4793 20.6672 85.633 14.2642 79.7263C7.85949 73.8173 0 72.7295 0 72.7295C0 72.7295 2.99396 79.0367 9.8141 85.3273C16.6321 91.6177 23.1628 91.4793 23.1628 91.4793Z" />
    <path d="M19.3004 78.522C19.3004 78.522 18.9921 72.161 15.0456 64.3582C11.099 56.5566 4.11719 52.75 4.11719 52.75C4.11719 52.75 4.73376 59.7167 8.93577 68.0265C13.1379 76.3372 19.3004 78.522 19.3004 78.522Z" />
    <path d="M16.6061 59.543C16.6061 59.543 17.1473 53.1998 14.2759 44.9319C11.4022 36.6619 4.9918 31.9424 4.9918 31.9424C4.9918 31.9424 4.67442 38.9304 7.73194 47.7329C10.7896 56.5422 16.6061 59.543 16.6061 59.543Z" />
    <path d="M19.2069 47.0388C19.2069 47.0388 22.0878 41.3769 22.5333 32.6248C22.9786 23.8727 18.8159 17.0488 18.8159 17.0488C18.8159 17.0488 15.8993 23.39 15.4238 32.7101C14.9482 42.0311 19.2069 47.0388 19.2069 47.0388Z" />
    <path d="M26.3066 31.9908C26.3066 31.9908 30.0596 26.8777 31.9069 18.3157C33.7524 9.75306 30.7436 2.33398 30.7436 2.33398C30.7436 2.33398 26.8441 8.11372 24.8782 17.2327C22.9124 26.3518 26.3066 31.9908 26.3066 31.9908Z" />
    <path d="M19.6294 70.3609C19.6294 70.3609 24.322 66.1136 27.8291 58.0988C31.3359 50.0834 29.8606 42.2051 29.8606 42.2051C29.8606 42.2051 24.8936 47.0791 21.1593 55.6126C17.423 64.1477 19.6294 70.3609 19.6294 70.3609Z" />
    <path d="M24.8164 41.7122C24.8164 41.7122 30.8135 39.7617 37.2464 33.8851C43.6775 28.0087 45.5021 20.2061 45.5021 20.2061C45.5021 20.2061 39.0034 22.615 32.1553 28.8728C25.3033 35.1304 24.8164 41.7122 24.8164 41.7122Z" />
    <path d="M33.678 24.181C33.678 24.181 39.3535 21.4111 44.9222 14.6993C50.4923 7.98318 51.2366 0 51.2366 0C51.2366 0 45.1288 3.28775 39.1957 10.4405C33.2665 17.5922 33.678 24.181 33.678 24.181Z" />
    <path d="M80.8428 135.048C80.8428 143.863 66.4941 153.454 66.4941 148.77C66.4941 144.086 80.8428 138.172 80.8428 135.048Z" />
    <path d="M89.1553 135.048C89.1553 143.863 103.504 153.454 103.504 148.77C103.504 144.086 89.1553 138.172 89.1553 135.048Z" />
    <path d="M90.0566 130.928C90.0566 130.928 92.2181 137.437 105.253 138.84C118.288 140.246 123.849 137.437 123.849 137.437C123.849 137.437 115.159 130.59 106.817 130.237C98.4743 129.885 90.0566 130.928 90.0566 130.928Z" />
    <path d="M90.0574 130.928C90.0574 130.928 89.0767 124.119 99.8713 116.604C110.668 109.09 116.883 108.881 116.883 108.881C116.883 108.881 113.318 118.159 104.628 123.591C97.5259 128.03 90.0574 130.928 90.0574 130.928Z" />
    <path d="M105.513 126.107C105.513 126.107 112.162 123.075 122.195 123.075C132.235 123.075 139.795 128.346 139.795 128.346C139.795 128.346 132.364 131.374 121.675 131.374C110.987 131.375 105.513 126.107 105.513 126.107Z" />
    <path d="M117.802 119.654C117.802 119.654 118.341 112.303 123.13 103.392C127.92 94.4761 136.11 90.2783 136.11 90.2783C136.11 90.2783 135.199 98.3226 130.1 107.815C124.996 117.306 117.802 119.654 117.802 119.654Z" />
    <path d="M122.814 118.737C122.814 118.737 128.572 114.216 138.332 111.842C148.09 109.467 156.659 112.8 156.659 112.8C156.659 112.8 150.138 117.507 139.747 120.036C129.356 122.564 122.814 118.737 122.814 118.737Z" />
    <path d="M131.449 110.9C131.449 110.9 135.037 104.484 143.127 98.4819C151.222 92.4798 160.398 92.207 160.398 92.207C160.398 92.207 156.183 99.0916 147.566 105.484C138.95 111.876 131.449 110.9 131.449 110.9Z" />
    <path d="M140.026 97.7022C140.026 97.7022 137.598 91.1328 138.231 81.505C138.867 71.8754 144.292 64.9541 144.292 64.9541C144.292 64.9541 146.671 72.2741 145.995 82.5311C145.32 92.7819 140.026 97.7022 140.026 97.7022Z" />
    <path d="M146.835 91.4793C146.835 91.4793 149.331 85.633 155.734 79.7263C162.138 73.8173 170 72.7295 170 72.7295C170 72.7295 167.002 79.0367 160.184 85.3273C153.364 91.6177 146.835 91.4793 146.835 91.4793Z" />
    <path d="M150.693 78.522C150.693 78.522 151 72.161 154.948 64.3582C158.897 56.5566 165.876 52.75 165.876 52.75C165.876 52.75 165.262 59.7167 161.06 68.0265C156.858 76.3372 150.693 78.522 150.693 78.522Z" />
    <path d="M153.392 59.543C153.392 59.543 152.849 53.1998 155.721 44.9319C158.593 36.6619 165.005 31.9424 165.005 31.9424C165.005 31.9424 165.324 38.9304 162.263 47.7329C159.207 56.5422 153.392 59.543 153.392 59.543Z" />
    <path d="M150.791 47.0388C150.791 47.0388 147.91 41.3769 147.463 32.6248C147.019 23.8727 151.18 17.0488 151.18 17.0488C151.18 17.0488 154.099 23.39 154.574 32.7101C155.048 42.0311 150.791 47.0388 150.791 47.0388Z" />
    <path d="M143.69 31.9908C143.69 31.9908 139.937 26.8777 138.091 18.3157C136.246 9.75306 139.253 2.33398 139.253 2.33398C139.253 2.33398 143.151 8.11372 145.118 17.2327C147.088 26.3518 143.69 31.9908 143.69 31.9908Z" />
    <path d="M150.371 70.3609C150.371 70.3609 145.675 66.1136 142.168 58.0988C138.661 50.0834 140.136 42.2051 140.136 42.2051C140.136 42.2051 145.103 47.0791 148.839 55.6126C152.574 64.1477 150.371 70.3609 150.371 70.3609Z" />
    <path d="M145.182 41.7122C145.182 41.7122 139.185 39.7617 132.754 33.8851C126.319 28.0087 124.496 20.2061 124.496 20.2061C124.496 20.2061 130.993 22.615 137.845 28.8728C144.693 35.1304 145.182 41.7122 145.182 41.7122Z" />
    <path d="M136.317 24.181C136.317 24.181 130.644 21.4111 125.075 14.6993C119.505 7.98318 118.759 0 118.759 0C118.759 0 124.87 3.28775 130.802 10.4405C136.732 17.5922 136.317 24.181 136.317 24.181Z" />
  </symbol>


  <symbol id="awd" width="170" height="150" viewBox="0 0 170 150" xmlns="http://www.w3.org/2000/svg">
    <path d="M79.9406 130.928C79.9406 130.928 77.7796 137.437 64.7445 138.84C51.7094 140.246 46.1484 137.437 46.1484 137.437C46.1484 137.437 54.8384 130.59 63.1809 130.237C71.523 129.885 79.9406 130.928 79.9406 130.928Z"  fill-opacity="0.3"/>
    <path d="M79.9428 130.928C79.9428 130.928 80.9238 124.119 70.129 116.604C59.3321 109.09 53.1172 108.881 53.1172 108.881C53.1172 108.881 56.6843 118.159 65.3722 123.591C72.4726 128.03 79.9428 130.928 79.9428 130.928Z"  fill-opacity="0.3"/>
    <path d="M64.4838 126.107C64.4838 126.107 57.8368 123.075 47.7992 123.075C37.7617 123.075 30.2031 128.346 30.2031 128.346C30.2031 128.346 37.6321 131.374 48.3216 131.374C59.0094 131.375 64.4838 126.107 64.4838 126.107Z"  fill-opacity="0.3"/>
    <path d="M52.1969 119.654C52.1969 119.654 51.6576 112.303 46.8671 103.392C42.0768 94.4761 33.8867 90.2783 33.8867 90.2783C33.8867 90.2783 34.798 98.3226 39.9007 107.815C45.0029 117.306 52.1969 119.654 52.1969 119.654Z"  fill-opacity="0.3"/>
    <path d="M47.1848 118.737C47.1848 118.737 41.4248 114.216 31.6672 111.842C21.9097 109.467 13.3398 112.8 13.3398 112.8C13.3398 112.8 19.8613 117.507 30.2539 120.036C40.6429 122.564 47.1848 118.737 47.1848 118.737Z"  fill-opacity="0.3"/>
    <path d="M38.5488 110.9C38.5488 110.9 34.9629 104.484 26.8707 98.4819C18.7782 92.4798 9.60156 92.207 9.60156 92.207C9.60156 92.207 13.8186 99.0916 22.4336 105.484C31.0502 111.876 38.5488 110.9 38.5488 110.9Z"  fill-opacity="0.3"/>
    <path d="M29.9699 97.7027C29.9699 97.7027 32.3983 91.1333 31.7629 81.5055C31.1293 71.8759 25.704 64.9546 25.704 64.9546C25.704 64.9546 23.3246 72.2746 23.9994 82.5316C24.6759 92.7824 29.9699 97.7027 29.9699 97.7027Z"  fill-opacity="0.3"/>
    <path d="M23.1628 91.4793C23.1628 91.4793 20.6672 85.633 14.2642 79.7263C7.85949 73.8173 0 72.7295 0 72.7295C0 72.7295 2.99396 79.0367 9.8141 85.3273C16.6321 91.6177 23.1628 91.4793 23.1628 91.4793Z"  fill-opacity="0.3"/>
    <path d="M19.3004 78.522C19.3004 78.522 18.9921 72.161 15.0456 64.3582C11.099 56.5566 4.11719 52.75 4.11719 52.75C4.11719 52.75 4.73376 59.7167 8.93577 68.0265C13.1379 76.3372 19.3004 78.522 19.3004 78.522Z"  fill-opacity="0.3"/>
    <path d="M16.6041 59.543C16.6041 59.543 17.1454 53.1998 14.2739 44.9319C11.4003 36.6619 4.98985 31.9424 4.98985 31.9424C4.98985 31.9424 4.67247 38.9304 7.72999 47.7329C10.7876 56.5422 16.6041 59.543 16.6041 59.543Z"  fill-opacity="0.3"/>
    <path d="M19.2069 47.0388C19.2069 47.0388 22.0878 41.3769 22.5333 32.6248C22.9786 23.8727 18.8159 17.0488 18.8159 17.0488C18.8159 17.0488 15.8993 23.39 15.4238 32.7101C14.9482 42.0311 19.2069 47.0388 19.2069 47.0388Z"  fill-opacity="0.3"/>
    <path d="M26.3066 31.9908C26.3066 31.9908 30.0596 26.8777 31.9069 18.3157C33.7524 9.75306 30.7436 2.33398 30.7436 2.33398C30.7436 2.33398 26.8441 8.11372 24.8782 17.2327C22.9124 26.3518 26.3066 31.9908 26.3066 31.9908Z"  fill-opacity="0.3"/>
    <path d="M19.6314 70.3609C19.6314 70.3609 24.3239 66.1136 27.831 58.0988C31.3379 50.0834 29.8625 42.2051 29.8625 42.2051C29.8625 42.2051 24.8955 47.0791 21.1613 55.6126C17.4249 64.1477 19.6314 70.3609 19.6314 70.3609Z"  fill-opacity="0.3"/>
    <path d="M24.8164 41.7122C24.8164 41.7122 30.8135 39.7617 37.2464 33.8851C43.6775 28.0087 45.5021 20.2061 45.5021 20.2061C45.5021 20.2061 39.0034 22.615 32.1553 28.8728C25.3033 35.1304 24.8164 41.7122 24.8164 41.7122Z"  fill-opacity="0.3"/>
    <path d="M33.678 24.181C33.678 24.181 39.3535 21.4111 44.9222 14.6993C50.4923 7.98318 51.2366 0 51.2366 0C51.2366 0 45.1288 3.28775 39.1957 10.4405C33.2665 17.5922 33.678 24.181 33.678 24.181Z"  fill-opacity="0.3"/>
    <path d="M80.8447 135.048C80.8447 143.863 66.4961 153.454 66.4961 148.771C66.4961 144.087 80.8447 138.173 80.8447 135.048Z"  fill-opacity="0.3"/>
    <path d="M89.1562 135.048C89.1562 143.863 103.505 153.454 103.505 148.771C103.505 144.087 89.1562 138.173 89.1562 135.048Z"  fill-opacity="0.3"/>
    <path d="M90.0586 130.928C90.0586 130.928 92.2201 137.437 105.255 138.84C118.29 140.246 123.851 137.437 123.851 137.437C123.851 137.437 115.161 130.59 106.819 130.237C98.4762 129.885 90.0586 130.928 90.0586 130.928Z"  fill-opacity="0.3"/>
    <path d="M90.0583 130.928C90.0583 130.928 89.0777 124.119 99.8723 116.604C110.669 109.09 116.884 108.881 116.884 108.881C116.884 108.881 113.319 118.159 104.629 123.591C97.5268 128.03 90.0583 130.928 90.0583 130.928Z"  fill-opacity="0.3"/>
    <path d="M105.512 126.107C105.512 126.107 112.161 123.075 122.194 123.075C132.234 123.075 139.794 128.346 139.794 128.346C139.794 128.346 132.363 131.374 121.674 131.374C110.986 131.375 105.512 126.107 105.512 126.107Z"  fill-opacity="0.3"/>
    <path d="M117.801 119.654C117.801 119.654 118.34 112.303 123.129 103.392C127.919 94.4761 136.109 90.2783 136.109 90.2783C136.109 90.2783 135.198 98.3226 130.099 107.815C124.995 117.306 117.801 119.654 117.801 119.654Z"  fill-opacity="0.3"/>
    <path d="M122.812 118.737C122.812 118.737 128.571 114.216 138.33 111.842C148.088 109.467 156.657 112.8 156.657 112.8C156.657 112.8 150.136 117.507 139.745 120.036C129.354 122.564 122.812 118.737 122.812 118.737Z"  fill-opacity="0.3"/>
    <path d="M131.449 110.9C131.449 110.9 135.037 104.484 143.127 98.4819C151.222 92.4798 160.398 92.207 160.398 92.207C160.398 92.207 156.183 99.0916 147.566 105.484C138.95 111.876 131.449 110.9 131.449 110.9Z"  fill-opacity="0.3"/>
    <path d="M140.025 97.7027C140.025 97.7027 137.597 91.1333 138.23 81.5055C138.866 71.8759 144.291 64.9546 144.291 64.9546C144.291 64.9546 146.67 72.2746 145.994 82.5316C145.319 92.7824 140.025 97.7027 140.025 97.7027Z"  fill-opacity="0.3"/>
    <path d="M146.836 91.4793C146.836 91.4793 149.332 85.633 155.735 79.7263C162.139 73.8173 170.001 72.7295 170.001 72.7295C170.001 72.7295 167.003 79.0367 160.185 85.3273C153.365 91.6177 146.836 91.4793 146.836 91.4793Z"  fill-opacity="0.3"/>
    <path d="M150.695 78.522C150.695 78.522 151.002 72.161 154.95 64.3582C158.898 56.5566 165.878 52.75 165.878 52.75C165.878 52.75 165.264 59.7167 161.062 68.0265C156.86 76.3372 150.695 78.522 150.695 78.522Z"  fill-opacity="0.3"/>
    <path d="M153.392 59.543C153.392 59.543 152.849 53.1998 155.721 44.9319C158.593 36.6619 165.005 31.9424 165.005 31.9424C165.005 31.9424 165.324 38.9304 162.263 47.7329C159.207 56.5422 153.392 59.543 153.392 59.543Z"  fill-opacity="0.3"/>
    <path d="M150.791 47.0388C150.791 47.0388 147.91 41.3769 147.463 32.6248C147.019 23.8727 151.18 17.0488 151.18 17.0488C151.18 17.0488 154.099 23.39 154.574 32.7101C155.048 42.0311 150.791 47.0388 150.791 47.0388Z"  fill-opacity="0.3"/>
    <path d="M143.69 31.9908C143.69 31.9908 139.937 26.8777 138.091 18.3157C136.246 9.75306 139.253 2.33398 139.253 2.33398C139.253 2.33398 143.151 8.11372 145.118 17.2327C147.088 26.3518 143.69 31.9908 143.69 31.9908Z"  fill-opacity="0.3"/>
    <path d="M150.371 70.3609C150.371 70.3609 145.675 66.1136 142.168 58.0988C138.661 50.0834 140.136 42.2051 140.136 42.2051C140.136 42.2051 145.103 47.0791 148.839 55.6126C152.574 64.1477 150.371 70.3609 150.371 70.3609Z"  fill-opacity="0.3"/>
    <path d="M145.182 41.7122C145.182 41.7122 139.185 39.7617 132.754 33.8851C126.319 28.0087 124.496 20.2061 124.496 20.2061C124.496 20.2061 130.993 22.615 137.845 28.8728C144.693 35.1304 145.182 41.7122 145.182 41.7122Z"  fill-opacity="0.3"/>
    <path d="M136.316 24.181C136.316 24.181 130.643 21.4111 125.074 14.6993C119.504 7.98318 118.758 0 118.758 0C118.758 0 124.869 3.28775 130.801 10.4405C136.732 17.5922 136.316 24.181 136.316 24.181Z"  fill-opacity="0.3"/>
  </symbol>


  <symbol id="aboutAdv">
    <circle cx="159" cy="159" r="121.5" stroke="#999999"/>
    <circle cx="159" cy="159" r="128.5" stroke="#999999" stroke-opacity="0.5"/>
    <circle cx="159" cy="159" r="135.5" stroke="#999999" stroke-opacity="0.3"/>
    <circle cx="159" cy="159" r="143.5" stroke="#999999" stroke-opacity="0.2"/>
    <circle cx="159" cy="159" r="151.5" stroke="#999999" stroke-opacity="0.1"/>
    <circle cx="159" cy="159" r="158.5" stroke="#999999" stroke-opacity="0.05"/>
  </symbol>
  <defs>
    <filter id="dfilter" x="0" y="0" width="174" height="59.6" filterUnits="userSpaceOnUse" color-interpolation-filters="sRGB">
      <feFlood flood-opacity="0" result="BackgroundImageFix"/>
      <feColorMatrix in="SourceAlpha" type="matrix" values="0 0 0 0 0 0 0 0 0 0 0 0 0 0 0 0 0 0 127 0"/>
      <feOffset dy="4"/>
      <feGaussianBlur stdDeviation="2"/>
      <feColorMatrix type="matrix" values="0 0 0 0 0 0 0 0 0 0 0 0 0 0 0 0 0 0 0.25 0"/>
      <feBlend mode="normal" in2="BackgroundImageFix" result="effect1_dropShadow"/>
      <feBlend mode="normal" in="SourceGraphic" in2="effect1_dropShadow" result="shape"/>
    </filter>
  </defs>
  <symbol id="digitale">
    <g filter="url(#dfilter)">
      <path d="M27.0998 15.4001C33.7998 15.4001 37.2998 20.4001 37.2998 25.7001C37.3998 31.0001 33.7998 36.2001 27.0998 36.2001H19.2998V15.4001H27.0998ZM27.0998 32.2001C30.8998 32.2001 32.8998 29.1001 32.8998 25.8001C32.8998 22.5001 30.7998 19.4001 27.0998 19.4001H23.7998V32.2001H27.0998Z" fill="white"/>
      <path d="M58.3998 15.1001C62.4998 15.1001 66.6998 17.1001 67.8998 22.0001H63.4998C62.4998 20.0001 60.7998 19.2001 58.3998 19.2001C54.4998 19.2001 52.2998 22.2001 52.2998 25.9001C52.2998 29.9001 54.6998 32.6001 58.3998 32.6001C61.2998 32.6001 63.3998 31.7001 64.1998 28.6001H58.4998V24.8001H68.2998C68.3998 26.8001 68.3998 28.7001 67.6998 30.6001C66.0998 34.8001 62.3998 36.6001 58.3998 36.6001C52.8998 36.6001 47.7998 32.8001 47.7998 25.9001C47.7998 19.0001 52.8998 15.1001 58.3998 15.1001Z" fill="white"/>
      <path d="M75.7998 36.2001H71.2998V15.3H75.7998V36.2001Z" fill="white"/>
      <path d="M44.7998 36.2001H40.2998V15.3H44.7998V36.2001Z" fill="white"/>
      <path d="M79.2002 19.2V15.3H94.6002V19.2H89.1002V36.2001H84.8002V19.2H79.2002Z" fill="white"/>
      <path d="M99.5998 32.8001L97.9998 36.2001H93.2998V35.6001L102.9 15.1001H105L114.5 35.6001V36.2001H109.9L108.3 32.7001H99.5998V32.8001ZM101.1 29.0001H106.9L104 22.1001L101.1 29.0001Z" fill="white"/>
      <path d="M122 32.2001H130.7V36.2001H117.5V15.4001H122V32.2001Z" fill="white"/>
      <path d="M146.4 19.3001H138.1V23.5001H145.9V27.4001H138.1V32.2001H146.6V36.3001H133.6V15.4001H146.4V19.3001Z" fill="white"/>
      <path d="M170 15.1H162V0H4V51.6H162V36.5H170V15.1ZM157.1 46.7H9V5H157.1V15.1V36.5V46.7Z" fill="#00FF00"/>
    </g>
  </symbol>

  <symbol id="heart">
    <path fill-rule="evenodd" clip-rule="evenodd" d="M18 33C10.2424 27.9231 0 20.6385 0 11.5C0 1.34615 5 0 10.2424 0C15.4848 0 18 4.06154 18 4.56923C18 4.06154 20.5152 0 25.7576 0C31 0 36 1.34615 36 11.5C36 20.6385 25.7576 27.9231 18 33Z" fill="#C4C4C4" fill-opacity="0.2"/>
  </symbol>

  <symbol id="smmWaves">
    <rect x="0.5" y="0.5" width="182" height="182" rx="14.5" stroke="#5B5B5B" stroke-opacity="0.2"/>
  </symbol>

  <symbol id="contentCircle">
    <circle class = "circle" cx = "50%" cy = "50%" r = "100%" fill = "none" stroke = "#fff" stroke-width = "1px">
      <animate attributeType="SVG" attributeName="r" begin="0s" dur="3s" repeatCount="indefinite" from="40%" to="50%"/>
      <animate attributeType="CSS" attributeName="opacity" begin="0s"  dur="3s" repeatCount="indefinite" from="0.4" to="0"/>
    </circle>
    <circle class = "circle" cx = "50%" cy = "50%" r = "100%" fill = "none" stroke = "#fff" stroke-width = "1px">
      <animate attributeType="SVG" attributeName="r"  dur="3s" repeatCount="indefinite" from="40%" to="50%" begin="1s"/>
      <animate attributeType="CSS" attributeName="opacity"   dur="3s" repeatCount="indefinite" from="0.4" to="0" begin="1s"/>
    </circle>
    <circle class = "circle" cx = "50%" cy = "50%" r = "100%" fill = "none" stroke = "#fff" stroke-width = "1px">
      <animate attributeType="SVG" attributeName="r"  dur="3s" repeatCount="indefinite" from="40%" to="50%" begin="2s"/>
      <animate attributeType="CSS" attributeName="opacity"   dur="3s" repeatCount="indefinite" from="0.4" to="0" begin="2s"/>
    </circle>

    <circle class = "circle" cx = "50%" cy = "50%" r = "100%" fill = "none" stroke = "#fff" stroke-width = "1px">
      <animate attributeType="SVG" attributeName="r" begin="0s" dur="1.5s" repeatCount="indefinite" from="40%" to="35%"/>
      <animate attributeType="CSS" attributeName="opacity" begin="0s"  dur="1.5s" repeatCount="indefinite" from="0.4" to="0"/>
    </circle>
    <circle class = "circle" cx = "50%" cy = "50%" r = "100%" fill = "none" stroke = "#fff" stroke-width = "1px">
      <animate attributeType="SVG" attributeName="r"  dur="1.5s" repeatCount="indefinite" from="40%" to="35%" begin=".75s"/>
      <animate attributeType="CSS" attributeName="opacity"   dur="1.5s" repeatCount="indefinite" from="0.4" to="0" begin=".75s"/>
    </circle>

    <circle class = "circle" cx = "50%" cy = "50%" r = "40%" fill = "none" stroke = "#fff" stroke-width = "1px">
    </circle>
  </symbol>

  <symbol id="cp1">
    <g opacity="0.5">
      <path d="M2.08008 2.08008V2.60008V23.9201H6.76008V17.1601H7.80008V23.9201H12.4801V17.1601H13.5201V18.7201H18.2001V17.1601H19.2238L20.6538 22.8801H25.4963L23.9201 16.5761V2.08008H2.08008ZM3.12008 3.12008H22.8801V16.1201H21.3759L21.6359 17.1601H22.9938L24.1638 21.8401H21.4663L20.0363 16.1201H17.1601V17.6801H14.5601V16.1201H11.4401V22.8801H8.84008V16.1201H5.72008V22.8801H3.12008V3.12008ZM7.80008 6.24008V8.32008H18.2001V6.24008H7.80008ZM7.80008 10.4001V12.4801H18.2001V10.4001H7.80008Z" fill="#D1D1D1"/>
    </g>
  </symbol>
  <symbol id="cp2">
    <g opacity="0.5">
      <path d="M8.62736 18.5077L15.1643 0.756836H7.55637L0 21.2433H5.28119C7.69115 21.2433 8.52989 18.8186 8.62736 18.5077ZM8.66518 2.25585H12.9506L7.14233 18.0284L7.1275 18.073C7.10702 18.1413 6.60804 19.7444 5.28108 19.7444H2.21469L8.66518 2.25585ZM15.5316 5.50121L16.2915 3.40299L16.4052 3.36462L22.9999 21.2433H17.7185C15.3085 21.2433 14.4699 18.8185 14.3724 18.5075L12.5819 13.6454L13.3733 11.4603L13.4315 11.4407L15.8662 18.052L15.8732 18.0762C15.8929 18.1413 16.3915 19.7443 17.7185 19.7443H20.7851L15.5316 5.50121Z" fill="#D1D1D1"/>
    </g>
  </symbol>

  <symbol id="cp3">
    <path opacity="0.5" d="M27.8512 12.6416C27.8184 12.5793 27.7856 12.5266 27.7582 12.4835C27.2716 11.7172 26.3419 10.7785 24.9748 9.66252L24.9474 9.63858L24.931 9.62421L24.9146 9.60984H24.8982C24.2748 9.09258 23.8811 8.74295 23.717 8.56095C23.4162 8.2209 23.3451 7.87606 23.5147 7.52643C23.6295 7.26301 24.067 6.70744 24.8271 5.85492C25.2263 5.40471 25.5435 5.04071 25.7732 4.76771C27.452 2.80883 28.1848 1.55878 27.9606 1.01279L27.8731 0.883473C27.8129 0.806842 27.6653 0.735 27.4192 0.672737C27.1786 0.610474 26.8669 0.596106 26.4841 0.639211L22.2843 0.663158C22.2186 0.644 22.1202 0.644001 21.9944 0.667948C21.8686 0.691895 21.803 0.706263 21.803 0.706263L21.7319 0.739789L21.6718 0.778105C21.6226 0.802052 21.5679 0.849946 21.5132 0.912209C21.453 0.974472 21.4093 1.0511 21.3655 1.13731C20.9062 2.16704 20.3867 3.12493 19.807 4.01098C19.4461 4.53782 19.118 4.99761 18.8172 5.38555C18.5164 5.7735 18.2649 6.05607 18.0571 6.24286C17.8547 6.42486 17.6688 6.57333 17.5048 6.68349C17.3407 6.79365 17.2149 6.84154 17.1274 6.82238C17.0399 6.80323 16.9579 6.78886 16.8813 6.7697C16.7446 6.69307 16.6353 6.5877 16.5532 6.45839C16.4712 6.32428 16.4165 6.16144 16.3837 5.96028C16.3564 5.75913 16.34 5.58671 16.3345 5.44302C16.329 5.29934 16.3345 5.09339 16.34 4.82997C16.3509 4.56656 16.3564 4.38935 16.3564 4.29356C16.3564 3.96788 16.3618 3.61825 16.3782 3.23988C16.3946 2.86151 16.4056 2.55978 16.4165 2.33946C16.4275 2.11915 16.4329 1.88447 16.4329 1.63542C16.4329 1.38636 16.4165 1.19479 16.3837 1.05589C16.3509 0.916999 16.2962 0.778105 16.2306 0.64879C16.165 0.514686 16.0611 0.414107 15.9298 0.342265C15.7986 0.270424 15.6345 0.212951 15.4431 0.169846C14.9291 0.0692672 14.2729 0.0117939 13.4745 0.00221497C11.6644 -0.0169428 10.505 0.0884251 9.991 0.308739C9.78867 0.404528 9.60274 0.529054 9.43868 0.691895C9.26369 0.878683 9.24181 0.979261 9.36759 0.998419C9.95272 1.07505 10.3629 1.25705 10.6089 1.54921L10.6964 1.70247C10.7621 1.81262 10.8332 2.00899 10.8988 2.29157C10.9644 2.57415 11.0081 2.88546 11.03 3.22551C11.0792 3.84814 11.0792 4.37977 11.03 4.8204C10.9808 5.26102 10.9371 5.60587 10.8933 5.85492C10.8496 6.10397 10.7839 6.30033 10.6964 6.4536C10.6089 6.60686 10.5488 6.70265 10.5214 6.73617C10.4941 6.7697 10.4668 6.79365 10.4504 6.79844C10.3246 6.84154 10.1933 6.8607 10.0566 6.8607C9.91991 6.8607 9.75585 6.80323 9.55899 6.68349C9.36212 6.56375 9.16525 6.40091 8.95198 6.19018C8.74418 5.97944 8.50903 5.69208 8.24654 5.31371C7.98405 4.94013 7.71062 4.49471 7.43173 3.98703L7.19658 3.61825C7.04893 3.37877 6.85207 3.03393 6.60051 2.57894C6.34896 2.12394 6.12475 1.68331 5.92788 1.25705C5.85133 1.07984 5.73102 0.940946 5.5779 0.849946L5.50681 0.811631C5.45759 0.778105 5.38103 0.739789 5.27166 0.701474C5.16229 0.663158 5.05292 0.634422 4.93808 0.620053L0.946055 0.644001C0.535916 0.644001 0.262489 0.725421 0.114839 0.888262L0.0437482 0.964893C0.0164056 1.008 0 1.07505 0 1.17084C0 1.26663 0.0273426 1.38157 0.0874965 1.51568C0.672629 2.71783 1.30698 3.87209 1.99054 4.98803C2.67411 6.10397 3.27018 6.99959 3.77875 7.67969C4.28186 8.3598 4.80137 9.00158 5.32635 9.60984C5.85133 10.2133 6.20131 10.6013 6.37084 10.7737C6.54036 10.9461 6.67707 11.0706 6.77004 11.1568L7.13643 11.4634C7.37158 11.6693 7.71063 11.9136 8.16451 12.1961C8.6184 12.4835 9.11604 12.7613 9.66836 13.0391C10.2152 13.3169 10.855 13.542 11.5878 13.7144C12.3151 13.8868 13.026 13.9587 13.7151 13.9251H15.3939C15.733 13.9012 15.99 13.8054 16.165 13.6426L16.2251 13.5803C16.2634 13.5276 16.3017 13.451 16.3345 13.3456C16.3673 13.2402 16.3837 13.1205 16.3837 12.996C16.3728 12.632 16.4056 12.3015 16.4767 12.0046C16.5478 11.7124 16.6298 11.4921 16.7228 11.3388C16.8157 11.1904 16.9196 11.0658 17.0345 10.9605C17.1493 10.8599 17.2313 10.7976 17.2806 10.7737C17.3298 10.7545 17.368 10.7354 17.3954 10.7306C17.6305 10.6635 17.904 10.7306 18.2211 10.9269C18.5383 11.1281 18.8336 11.3724 19.1125 11.6693C19.3914 11.9615 19.725 12.2919 20.1132 12.6607C20.5015 13.0247 20.8406 13.2977 21.1359 13.4797L21.4257 13.633C21.6226 13.7336 21.8741 13.8293 22.1858 13.9156C22.4975 14.0018 22.771 14.0209 23.0006 13.9778L26.7302 13.9251C27.0966 13.9251 27.3864 13.8724 27.5887 13.7671C27.7911 13.6617 27.9168 13.542 27.9551 13.4174C27.9934 13.2881 27.9989 13.1445 27.9606 12.9816C27.9168 12.814 27.884 12.7038 27.8512 12.6416Z" fill="#D1D1D1"/>
  </symbol>

  <symbol id="cp4">
    <g opacity="0.5">
      <path d="M3.16164 7.39562H0.267578V11.0934H3.16164V22.1869H7.98506V11.0934H11.4985L11.8438 7.39562H7.98506V5.85456C7.98506 4.97171 8.17028 4.62226 9.06069 4.62226H11.8438V0H8.17029C4.70127 0 3.16164 1.46341 3.16164 4.26635V7.39562Z" fill="#D1D1D1"/>
    </g>
  </symbol>

  <symbol id="cp5">
    <g opacity="0.5">
      <path d="M10.2015 3.2124C5.05857 3.2124 0.880859 7.4764 0.880859 12.742C0.880859 18.0075 5.05857 22.2715 10.2015 22.2715C15.3444 22.2715 19.5221 18.0002 19.5221 12.742C19.5221 7.48377 15.3444 3.2124 10.2015 3.2124ZM10.2015 18.9281C6.85931 18.9281 4.151 16.1591 4.151 12.742C4.151 9.32488 6.85931 6.55585 10.2015 6.55585C13.5436 6.55585 16.252 9.32488 16.252 12.742C16.252 16.1591 13.5436 18.9281 10.2015 18.9281Z" fill="#D1D1D1"/>
      <path d="M19.8921 5.0596C21.0936 5.0596 22.0675 4.06404 22.0675 2.83595C22.0675 1.60787 21.0936 0.612305 19.8921 0.612305C18.6907 0.612305 17.7168 1.60787 17.7168 2.83595C17.7168 4.06404 18.6907 5.0596 19.8921 5.0596Z" fill="#D1D1D1"/>
    </g>
  </symbol>

  <symbol id="cp6">
    <g opacity="0.5">
      <path d="M18.1335 13.4498C16.4074 15.6477 14.9083 15.1084 13.703 12.9319C13.1933 13.4268 12.6409 13.8791 12.0532 14.2871C10.7809 15.0481 9.41755 14.335 9.33385 12.8911C9.30409 12.3571 9.33385 11.8143 9.30781 11.2715C9.25573 11.0799 9.17017 10.9007 9.05299 10.7375C8.86141 10.8298 8.58613 10.8759 8.49313 11.0249C8.27365 11.4152 8.08393 11.8214 7.92955 12.2383C7.7045 12.7527 7.50548 13.2831 7.2674 13.7833C7.02374 14.2978 6.42854 14.5709 5.8538 14.4343C5.28278 14.3811 4.84754 13.9217 4.85312 13.3736C4.81034 12.6817 4.89218 11.981 4.85312 11.2857C4.80662 11.0568 4.72664 10.8333 4.61504 10.6258C4.41974 10.7801 4.13889 10.8937 4.03845 11.0906C3.65715 11.8799 3.31677 12.7332 2.93547 13.5421C2.82015 13.8188 2.66019 14.076 2.45931 14.3031C2.05011 14.7483 1.33959 14.7944 0.872733 14.4042C0.683014 14.2463 0.554674 14.0299 0.508174 13.794C0.472834 13.6787 0.450515 13.5616 0.444935 13.4427C0.444935 11.8232 0.389135 10.1734 0.418895 8.53792C0.433775 8.10331 0.582574 7.68113 0.842974 7.32457C1.11453 6.98931 1.49583 6.74806 1.92549 6.6363C2.57835 6.46956 2.90199 6.7658 2.93175 7.4452C2.95779 7.96672 2.93175 8.49357 2.93175 9.01864L3.21633 9.09492C3.42465 8.90157 3.61437 8.69225 3.78549 8.46696C4.1426 7.90818 4.45136 7.31748 4.80848 6.75515C5.06702 6.24604 5.6771 5.99593 6.24254 6.16445C6.79868 6.28684 7.16696 6.79418 7.0907 7.33344V9.0896L7.3325 9.16233C7.50362 9.0151 7.66544 8.85544 7.81238 8.68515C8.32201 8.10686 8.79631 7.49487 9.32269 6.93254C9.54217 6.69307 9.81745 6.50503 10.1243 6.38263C10.74 6.09526 11.4803 6.33829 11.7816 6.92545C11.8969 7.14896 11.9341 7.40085 11.8895 7.64565C11.8039 8.81997 11.7277 9.99251 11.6607 11.1668C11.6588 11.3797 11.67 11.5943 11.6942 11.8054C12.6112 11.5234 13.2826 10.7713 13.4296 9.86302C13.4928 8.89447 13.6156 7.93125 13.7978 6.97689C13.8946 6.3986 14.3949 5.9569 15.0068 5.91255C15.5555 5.80434 16.121 6.01189 16.4502 6.44649C16.8222 6.9556 16.8371 7.62791 16.4837 8.14943C15.974 8.95833 16.0075 9.83641 16.1228 10.7021C16.1786 11.0817 16.4018 11.4187 16.7348 11.6334C17.1979 11.848 17.5829 11.4595 17.7652 11.071C18.0907 10.2763 18.3753 9.46566 18.6134 8.64258C18.7919 8.07138 18.8645 7.46826 19.0374 6.90239C19.2997 6.113 19.8856 5.76532 20.5905 5.9232C21.3364 6.09881 21.8163 6.79063 21.6935 7.51438C21.6433 7.91883 21.4778 8.28248 21.4127 8.67628C21.2081 9.86657 21.0314 11.0604 20.8305 12.3181C21.7902 12.0307 22.5528 11.7841 23.334 11.5855C23.7005 11.5127 24.0762 11.4879 24.45 11.5163C25.155 11.5163 25.4861 11.8516 25.7223 12.6126C26.4979 15.0126 28.1793 16.4495 30.7796 16.8664C34.5219 17.4695 38.0857 14.2676 37.7137 10.663C37.6876 10.4236 37.6541 10.1859 37.6374 9.94639C37.4867 9.29182 37.922 8.64435 38.6083 8.50067C39.2947 8.35698 39.9735 8.77207 40.1242 9.42664C40.1409 9.50292 40.1521 9.57919 40.154 9.65725C40.6673 12.9354 39.5848 15.6583 36.8357 17.677C33.0488 20.4301 27.6381 19.733 24.7514 16.1213C24.5151 15.8251 24.2994 15.5129 24.1059 15.1883C23.5238 14.225 23.3378 14.1683 22.2813 14.6508C22.2273 14.6809 22.1697 14.7075 22.112 14.7324C21.0555 15.1084 20.6612 15.8162 20.5626 16.9054C20.4231 18.6296 20.1386 20.3414 19.7145 22.0248C19.1453 24.173 17.7671 24.5544 15.8959 23.2382C13.5839 21.631 13.1599 19.1476 14.9287 17.0384C15.6932 16.1958 16.5562 15.4401 17.5048 14.7891C17.9921 14.5195 18.2451 13.9802 18.1335 13.4498ZM17.9586 17.473L17.6964 17.363C17.3337 17.826 16.9989 18.3085 16.6957 18.807C16.4465 19.2913 16.5618 19.8749 16.9803 20.2403C17.2519 20.5188 17.5327 20.5969 17.609 20.1019C17.7466 19.2132 17.8284 18.3511 17.9586 17.473Z" fill="white"/>
      <path d="M35.8112 4.47345C35.7033 3.62374 36.0735 2.7829 36.7821 2.2596C37.3085 1.8108 37.7791 1.29282 38.3017 0.835145C38.497 0.710971 38.7128 0.616954 38.9379 0.556641C39.0309 0.742902 39.096 0.939806 39.1332 1.14381C39.1592 1.86047 39.1536 2.57713 39.1332 3.29734C39.1332 3.79936 39.3657 4.0211 39.892 4.01755H42.2096C42.403 4.04948 42.5909 4.10979 42.7657 4.19494C42.7155 4.39539 42.6318 4.5852 42.5146 4.75727C41.899 5.37992 41.2424 5.97063 40.6174 6.58263C40.1878 7.01015 39.5665 7.20883 38.9546 7.11303C38.099 6.98886 37.2415 7.3259 36.7263 7.99112C36.0679 8.71133 35.296 9.33398 34.6041 10.0347C34.4088 10.2458 34.3028 10.519 34.3028 10.7992C34.4125 12.1953 33.3132 13.4104 31.8513 13.5133C30.3875 13.618 29.1134 12.5696 29.0055 11.1753C28.998 11.0884 28.9962 10.9997 28.9999 10.9128C29.0501 9.53975 30.2591 8.46476 31.6988 8.51265C31.7713 8.51443 31.8457 8.51975 31.9182 8.52862C32.2865 8.58716 32.6622 8.45766 32.9078 8.18803C33.6164 7.48378 34.3288 6.77954 35.0933 6.12851C35.6494 5.67616 35.9898 5.19011 35.8112 4.47345Z" fill="white"/>
      <path d="M23.8645 7.56839C23.937 7.35375 24.0282 7.1462 24.1361 6.94575C25.9737 3.92834 29.5989 2.33183 33.1998 2.95624C34.0778 3.11767 34.5744 3.68532 34.4479 4.38956C34.3214 5.0938 33.6537 5.51421 32.7497 5.35633C30.2741 4.9235 27.7724 5.9772 26.4406 8.01541C26.3309 8.20877 26.2025 8.39148 26.0593 8.56178C25.7078 8.95736 25.1219 9.07976 24.629 8.85802C24.123 8.65402 23.8552 8.26199 23.8645 7.56839Z" fill="white"/>
    </g>
  </symbol>

  <symbol id="cp7">
    <path opacity="0.5" d="M0.888 9H1.716L2.184 3.096C2.22 2.64 2.208 1.896 2.208 1.896H2.232C2.232 1.896 2.496 2.676 2.688 3.096L4.668 7.428H5.436L7.428 3.096C7.62 2.664 7.872 1.92 7.872 1.92H7.896C7.896 1.92 7.884 2.64 7.92 3.096L8.388 9H9.216L8.544 0.564H7.692L5.472 5.52C5.28 5.952 5.064 6.552 5.064 6.552H5.04C5.04 6.552 4.824 5.952 4.632 5.52L2.412 0.564H1.56L0.888 9ZM10.5361 10.512L10.2241 11.16C10.2241 11.16 10.6681 11.52 11.2921 11.52C12.0961 11.52 12.7081 11.028 13.0201 10.26L15.9961 2.964H15.1201L13.3801 7.368C13.2601 7.668 13.1761 8.004 13.1761 8.004H13.1521C13.1521 8.004 13.0441 7.668 12.9241 7.368L11.1601 2.964H10.2601L12.7681 8.94L12.4081 9.804C12.1681 10.356 11.7841 10.788 11.2561 10.788C10.8721 10.788 10.5361 10.512 10.5361 10.512ZM17.5005 6.804C17.5005 8.82 18.9165 9.048 19.6125 9.048C19.7685 9.048 19.8885 9.036 19.9605 9.024V8.292C19.8525 8.316 19.7685 8.316 19.6845 8.316C19.2165 8.316 18.3165 8.124 18.3165 6.72V3.696H19.8405V3.012H18.3165V1.296H17.5125V3.012H16.7085V3.696H17.5005V6.804ZM20.6588 7.38C20.6588 8.544 21.6788 9.144 22.6988 9.144C23.6708 9.144 24.4268 8.52 24.7388 7.788H24.7628C24.7628 7.788 24.7268 7.992 24.7268 8.292V9H25.5068V5.136C25.5068 3.624 24.7028 2.82 23.2508 2.82C22.4468 2.82 21.5948 3.096 21.1148 3.504L21.4868 4.128C21.9788 3.768 22.5908 3.552 23.2028 3.552C24.0548 3.552 24.6908 3.948 24.6908 5.112V5.28H24.3308C23.1788 5.28 20.6588 5.4 20.6588 7.38ZM21.4868 7.308C21.4868 5.964 23.4068 5.928 24.3428 5.928H24.6908V6.204C24.6908 7.26 24.0068 8.46 22.8428 8.46C21.9428 8.46 21.4868 7.872 21.4868 7.308ZM27.3861 9H28.2021V6.444C28.2021 5.244 28.7661 3.72 30.1221 3.72C30.2421 3.72 30.3861 3.732 30.4221 3.744V2.94C30.3261 2.916 30.2061 2.904 30.0981 2.904C29.1621 2.904 28.4661 3.648 28.1661 4.56H28.1421C28.1421 4.56 28.1901 4.344 28.1901 4.08V2.964H27.3861V9ZM31.9673 10.368L31.6673 11.028C32.2553 11.34 32.9513 11.52 33.6353 11.52C35.1233 11.52 36.5393 10.776 36.5393 8.856V2.964H35.7473V3.672C35.7473 3.804 35.7713 3.876 35.7713 3.876H35.7473C35.3753 3.132 34.5473 2.82 33.7433 2.82C32.1233 2.82 31.1273 4.056 31.1273 5.868C31.1273 7.68 32.1953 8.964 33.8153 8.964C34.7513 8.964 35.3753 8.532 35.7353 7.848H35.7593C35.7593 7.848 35.7113 8.064 35.7113 8.292V8.892C35.7113 10.236 34.7873 10.776 33.6113 10.776C33.0473 10.776 32.4353 10.608 31.9673 10.368ZM31.9553 5.856C31.9553 4.416 32.6513 3.552 33.8273 3.552C34.8953 3.552 35.7353 4.104 35.7353 5.868C35.7353 7.644 34.8953 8.232 33.9353 8.232C32.7473 8.232 31.9553 7.308 31.9553 5.856ZM38.0757 5.988C38.0757 7.848 39.4437 9.144 41.2437 9.144C42.0357 9.144 42.9117 8.82 43.4757 8.304L43.1037 7.68C42.6117 8.124 41.9277 8.4 41.2677 8.4C40.0197 8.4 38.9637 7.548 38.9277 6.012H43.5597C43.5717 5.88 43.5837 5.736 43.5837 5.604C43.5837 4.104 42.7317 2.82 41.0637 2.82C39.4317 2.82 38.0757 4.008 38.0757 5.988ZM38.9637 5.364C39.1557 4.152 40.0317 3.492 41.0397 3.492C41.9397 3.492 42.7077 4.104 42.7557 5.364H38.9637ZM45.2857 6.804C45.2857 8.82 46.7017 9.048 47.3977 9.048C47.5537 9.048 47.6737 9.036 47.7457 9.024V8.292C47.6377 8.316 47.5537 8.316 47.4697 8.316C47.0017 8.316 46.1017 8.124 46.1017 6.72V3.696H47.6257V3.012H46.1017V1.296H45.2977V3.012H44.4937V3.696H45.2857V6.804Z" fill="#999999"/>
  </symbol>


  <symbol id="cp8">
    <g opacity="0.5" clip-path="url(#clip0)">
      <path d="M19.3153 3.9793e-08H15.4897C15.2665 0.00150595 15.0458 0.0474883 14.8404 0.135274C14.6351 0.22306 14.4492 0.350898 14.2935 0.51136C14.1379 0.671823 14.0156 0.861709 13.9337 1.06998C13.8519 1.27826 13.8121 1.50077 13.8168 1.72458V21.0469H19.3153C19.5395 21.047 19.7615 21.0021 19.9682 20.915C20.1749 20.828 20.3622 20.7004 20.5191 20.5397C20.676 20.3791 20.7994 20.1887 20.8819 19.9797C20.9645 19.7706 21.0046 19.5471 20.9999 19.3223V1.72458C21.0046 1.49978 20.9645 1.27631 20.8819 1.06727C20.7994 0.858222 20.676 0.667809 20.5191 0.507188C20.3622 0.346568 20.1749 0.218971 19.9682 0.131879C19.7615 0.0447875 19.5395 -4.87603e-05 19.3153 3.9793e-08Z" fill="#D1D1D1"/>
      <path d="M6.62161 8.29437V13.8435H1.64955C1.21206 13.8435 0.792494 14.0178 0.483143 14.328C0.173792 14.6383 0 15.059 0 15.4977V19.3223C0.00295195 19.7623 0.176965 20.1838 0.485025 20.4971C0.793086 20.8104 1.21088 20.9908 1.64955 21H13.8165V6.64018H8.28287C8.06526 6.63863 7.8495 6.68028 7.64802 6.76271C7.44653 6.84515 7.2633 6.96675 7.10888 7.12051C6.95447 7.27427 6.83192 7.45715 6.74829 7.65862C6.66466 7.86008 6.62161 8.07615 6.62161 8.29437Z" fill="#A1A1A1"/>
    </g>
    <defs>
      <clipPath id="clip0">
        <rect width="21" height="21" fill="white"/>
      </clipPath>
    </defs>
  </symbol>

  <symbol id="cp9">
    <svg width="26" height="21" viewBox="0 0 26 21" fill="none" xmlns="http://www.w3.org/2000/svg">
      <g opacity="0.5">
        <rect x="0.5" y="13.5" width="7.49997" height="7.49997" rx="3.74998" fill="#C4C4C4"/>
        <rect x="9.5" y="6" width="7.49997" height="14.9999" rx="3.74998" fill="#C4C4C4"/>
        <rect x="18.5" width="7.49997" height="20.9999" rx="3.74998" fill="#C4C4C4"/>
      </g>
    </svg>
  </symbol>

  <symbol id="cp10">
    <g opacity="0.5">
      <path d="M16.2324 15.0094L21.3014 9.94044V7.43888L16.2324 12.5078V15.0094Z" fill="#D1D1D1"/>
      <path d="M14.3266 16.9841L10.311 20.9998H7.67773L14.3266 14.3509V16.9841Z" fill="#D1D1D1"/>
      <path d="M11.9567 20.9998L21.3046 11.6519V14.2192L14.5241 20.9998H11.9567Z" fill="#D1D1D1"/>
      <path d="M6.62224 0L0.5 6.12224V15.0094L1.68495 16.1943L16.5626 1.31661L15.246 0H6.62224Z" fill="#D1D1D1"/>
      <path d="M18.8667 3.75234L17.6818 2.56739L12.8103 7.43885V9.80875L18.8667 3.75234Z" fill="#D1D1D1"/>
      <path d="M14.5219 12.3761L20.9733 5.92475L19.7554 4.70688L14.5219 9.94041V12.3761Z" fill="#D1D1D1"/>
      <path d="M11.0347 9.21582V11.7174L4.18828 18.5638L2.9375 17.313L11.0347 9.21582Z" fill="#D1D1D1"/>
      <path d="M12.6818 11.7837V14.2853L6.36211 20.605L5.11133 19.42L12.6818 11.7837Z" fill="#D1D1D1"/>
    </g>
  </symbol>

  <symbol id="cp11">
    <g opacity="0.5" clip-path="url(#clip0)">
      <path d="M6.85583 16.8617C6.85583 17.5411 6.29995 18.1588 5.55878 18.1588C4.8176 18.1588 4.26172 17.6029 4.26172 16.8617V11.3029C4.26172 10.6235 4.8176 10.0059 5.55878 10.0059C6.29995 10.0059 6.85583 10.5617 6.85583 11.3029V16.8617Z" fill="#D1D1D1"/>
      <path d="M10.5617 18.3443C10.5617 19.0237 10.0058 19.6413 9.2646 19.6413C8.52342 19.6413 8.0293 19.0854 8.0293 18.3443V9.88251C8.0293 9.2031 8.58518 8.58545 9.32636 8.58545C10.0675 8.58545 10.6234 9.14133 10.6234 9.88251V18.3443H10.5617Z" fill="#D1D1D1"/>
      <path d="M3.08728 15.6267C3.08728 16.3062 2.5314 16.9238 1.79022 16.9238C1.04905 16.9238 0.493164 16.3679 0.493164 15.6267V12.6003C0.493164 11.9209 1.04905 11.3032 1.79022 11.3032C2.5314 11.3032 3.08728 11.9209 3.08728 12.6003V15.6267Z" fill="#D1D1D1"/>
      <path d="M14.2648 19.7033C14.2648 20.3827 13.7089 21.0003 12.9677 21.0003C12.2883 21.0003 11.7324 20.3827 11.7324 19.7033V8.4621C11.7324 7.78269 12.2883 7.16504 13.0295 7.16504C13.7089 7.16504 14.3265 7.72092 14.3265 8.4621V19.7033H14.2648Z" fill="#D1D1D1"/>
      <path d="M18.3444 19.1472C18.0974 19.1472 17.9121 19.0854 17.665 19.0236L16.1209 18.5295C15.8738 18.4678 15.6885 18.1589 15.8121 17.9119C15.8738 17.6648 16.1827 17.4795 16.4297 17.6031L18.0356 18.0972C18.3444 18.2207 18.715 18.1589 19.0238 17.9119C19.3326 17.7266 19.4562 17.356 19.4562 17.0472V6.73246C19.4562 6.23834 19.1474 5.80599 18.715 5.68246L3.58265 1.11187C3.27383 0.988344 2.90324 1.05011 2.59442 1.2354C2.34736 1.48246 2.16206 1.79129 2.16206 2.16187V9.26482C2.16206 9.57364 1.915 9.75893 1.66795 9.75893C1.35912 9.75893 1.17383 9.51187 1.17383 9.26482V2.16187C1.17383 1.48246 1.48265 0.864814 2.03853 0.494226C2.59442 0.061873 3.27383 0.000108279 3.89147 0.185402L18.9621 4.75599C19.8268 5.00305 20.4444 5.86776 20.4444 6.79423V17.1089C20.4444 17.7883 20.1356 18.406 19.5797 18.8383C19.2091 18.9619 18.7768 19.1472 18.3444 19.1472Z" fill="#D1D1D1"/>
    </g>
    <defs>
      <clipPath id="clip0">
        <rect width="21" height="21" fill="white"/>
      </clipPath>
    </defs>
  </symbol>

  <symbol id="cp12">
    <g opacity="0.5">
      <path d="M4.39034 0.371094H0V2.44653H2.71403L7.02454 14.5C10.2973 13.6485 17.1463 11.8339 18.3596 11.3868C19.5729 10.9398 19.6634 9.55089 19.557 8.91229V4.04301H5.82717L4.39034 0.371094Z" fill="#D1D1D1"/>
      <circle cx="5.58817" cy="18.1721" r="1.75613" fill="#D1D1D1"/>
      <circle cx="15.1624" cy="18.1721" r="1.75613" fill="#D1D1D1"/>
    </g>
  </symbol>

  <symbol id="cp13">
    <g opacity="0.5">
      <rect x="9.58398" y="0.00927734" width="16.9551" height="12.7282" rx="0.616236" transform="rotate(45 9.58398 0.00927734)" fill="#C4C4C4"/>
      <path fill-rule="evenodd" clip-rule="evenodd" d="M1.2428 0.000440626C0.884571 -0.0129594 0.590556 0.281054 0.603956 0.63928L0.938409 9.58027C0.958518 10.1179 1.60956 10.3734 1.98996 9.99298L10.5965 1.38644C10.9769 1.00604 10.7214 0.355002 10.1838 0.334893L1.2428 0.000440626ZM3.88716 3.98357C4.45863 3.98357 4.9219 3.5203 4.9219 2.94882C4.9219 2.37735 4.45863 1.91408 3.88716 1.91408C3.31568 1.91408 2.85241 2.37735 2.85241 2.94882C2.85241 3.5203 3.31568 3.98357 3.88716 3.98357Z" fill="#C4C4C4"/>
    </g>
  </symbol>

  <symbol id="cp8">
    <g opacity="0.5">
      <path d="M0.364674 1.40871V2.67825L3.9916 2.67821V14.0134C3.9916 14.9565 4.59615 15.1923 4.89842 15.1923H6.53069H20.8584C21.4932 15.1923 21.9466 14.9203 21.9466 13.8321C21.9466 12.9615 21.2211 12.8043 20.8584 12.8346H6.53069V1.77143C6.53069 0.610708 5.86569 0.380981 5.53319 0.411209H0.999446C0.419083 0.411209 0.334447 1.07621 0.364674 1.40871Z" fill="#C4C4C4"/>
      <path d="M23.4882 7.84707H7.70956V11.6557H21.1305C22.2186 11.6557 22.5511 10.9907 22.5814 10.6582L23.4882 7.84707Z" fill="#C4C4C4"/>
      <path d="M7.70956 6.66821H23.8509C24.0323 6.06367 24.4675 4.63694 24.7577 3.7664C25.0479 2.89585 24.2741 2.73867 23.8509 2.7689H9.06978C7.9816 2.7689 7.70956 3.4339 7.70956 3.7664V6.66821Z" fill="#C4C4C4"/>
      <circle cx="7.43668" cy="18.1847" r="1.81363" fill="#C4C4C4"/>
      <circle cx="18.1369" cy="18.1847" r="1.81363" fill="#C4C4C4"/>
    </g>
  </symbol>


</svg>

