<svg width="154" height="27" viewBox="0 0 154 27" fill="none" xmlns="http://www.w3.org/2000/svg">
<g clip-path="url(#clip0_539_301)">
<path d="M46.554 16.6938C46.554 18.7073 44.661 20.1653 41.9967 20.1653H35.7568V7.66794H41.7864C44.3806 7.66794 46.2034 9.05654 46.2034 11.0006C46.2034 12.3197 45.5024 13.1529 44.4506 13.6389C45.5724 14.0555 46.554 15.1663 46.554 16.6938ZM38.4912 9.95913V12.6669H41.7163C42.6979 12.6669 43.3289 12.1115 43.3289 11.3477C43.3289 10.584 42.6277 9.95913 41.7163 9.95913H38.4912ZM41.9967 17.8741C43.0485 17.8741 43.8197 17.2493 43.8197 16.3467C43.8197 15.4441 43.1185 14.8192 41.9967 14.8192H38.4912V17.8741H41.9967Z" fill="white"/>
<path d="M56.8601 20.0959L52.5134 15.1664H51.8123V20.0959H49.0078V7.66794H51.8123V12.4586H52.5134L56.7201 7.66794H60.0155L54.757 13.6389L60.5059 20.0959H56.8601Z" fill="white"/>
<path d="M60.5059 13.9166C60.5059 10.1674 63.3108 7.45963 67.2367 7.45963C71.1631 7.45963 73.9675 10.1674 73.9675 13.9166C73.9675 17.6658 71.1631 20.3736 67.2367 20.3736C63.3108 20.3736 60.5059 17.6658 60.5059 13.9166ZM71.0231 13.9166C71.0231 11.556 69.4803 9.95912 67.2367 9.95912C64.9931 9.95912 63.4508 11.556 63.4508 13.9166C63.4508 16.2772 64.9931 17.8741 67.2367 17.8741C69.4803 17.8741 71.0231 16.2772 71.0231 13.9166Z" fill="white"/>
<path d="M84.6943 7.66794H87.4993V20.0959H84.6943V15.0969H79.0856V20.0959H76.2812V7.66794H79.0856V12.5974H84.6943V7.66794Z" fill="white"/>
<path d="M93.5288 20.0959V10.1674H89.1816V7.66794H100.61V10.1674H96.2628V20.0959H93.5288Z" fill="white"/>
<path d="M112.669 13.1529V20.0959H110.636L110.075 18.1518C109.444 19.1933 108.112 20.3736 106.079 20.3736C103.554 20.3736 101.731 18.7073 101.731 16.4161C101.731 14.1249 103.554 12.528 107.27 12.528H110.004C109.864 10.9311 109.023 9.82027 107.481 9.82027C106.219 9.82027 105.377 10.5145 104.957 11.2783L102.433 10.8617C103.064 8.70937 105.237 7.45963 107.621 7.45963C110.706 7.45963 112.669 9.5425 112.669 13.1529ZM109.935 14.6804H107.341C105.237 14.6804 104.536 15.3746 104.536 16.2772C104.536 17.3187 105.377 18.013 106.779 18.013C108.602 18.013 109.935 16.6938 109.935 14.6804Z" fill="white"/>
<path d="M123.466 20.0959L119.12 15.1664H118.418V20.0959H115.614V7.66794H118.418V12.4586H119.12L123.326 7.66794H126.621L121.363 13.6389L127.112 20.0959H123.466Z" fill="white"/>
<path d="M132.16 20.0959V10.1674H127.813V7.66794H139.242V10.1674H134.895V20.0959H132.16Z" fill="white"/>
<path d="M153.263 14.6804H143.168C143.448 16.6244 144.85 17.8741 146.953 17.8741C148.426 17.8741 149.548 17.2493 150.179 16.3467L152.773 16.7632C151.861 19.1239 149.407 20.3736 146.743 20.3736C142.957 20.3736 140.223 17.6658 140.223 13.9166C140.223 10.1674 142.957 7.45963 146.743 7.45963C150.529 7.45963 153.263 10.1674 153.263 13.7778C153.334 14.1249 153.263 14.4026 153.263 14.6804ZM143.378 12.528H150.319C149.828 11.0006 148.566 9.88967 146.813 9.88967C145.13 9.82027 143.799 10.9311 143.378 12.528Z" fill="white"/>
<path d="M0 12.9696C0 6.96824 0 3.96762 1.88267 2.10325C3.76533 0.238892 6.79542 0.238892 12.8557 0.238892H13.927C19.9872 0.238892 23.0173 0.238892 24.9 2.10325C26.7826 3.96762 26.7826 6.96824 26.7826 12.9696V14.0304C26.7826 20.0318 26.7826 23.0324 24.9 24.8968C23.0173 26.7611 19.9872 26.7611 13.927 26.7611H12.8557C6.79542 26.7611 3.76533 26.7611 1.88267 24.8968C0 23.0324 0 20.0318 0 14.0304V12.9696Z" fill="#0077FF"/>
<path d="M14.2505 19.346C8.14629 19.346 4.6646 15.2019 4.51953 8.30612H7.57721C7.67765 13.3674 9.93179 15.5113 11.7173 15.9534V8.30612H14.5965V12.6712C16.3597 12.4834 18.212 10.4942 18.8369 8.30612H21.7161C21.2362 11.0025 19.2275 12.9917 17.7991 13.8095C19.2275 14.4725 21.5153 16.2075 22.3858 19.346H19.2164C18.5357 17.2463 16.8396 15.6218 14.5965 15.4008V19.346H14.2505Z" fill="white"/>
</g>
<defs>
<clipPath id="clip0_539_301">
<rect width="154" height="26.5222" fill="white" transform="translate(0 0.238892)"/>
</clipPath>
</defs>
</svg>
