<svg width="100" height="120" viewBox="0 0 100 120" fill="none" xmlns="http://www.w3.org/2000/svg">
<path opacity="0.6" d="M76.0366 24H23.963C17.9229 24 13.0264 28.8337 13.0264 34.7964V86.2024C13.0264 92.1651 17.9229 96.9988 23.963 96.9988H76.0366C82.0767 96.9988 86.9732 92.1651 86.9732 86.2024V34.7964C86.9732 28.8337 82.0767 24 76.0366 24Z" stroke="white" stroke-width="2" stroke-miterlimit="10"/>
<path opacity="0.7" d="M59.8851 36.8636L65.4653 39.8995C65.8679 40.1185 66.1659 40.4865 66.2937 40.9224C66.4215 41.3583 66.3686 41.8265 66.1467 42.224L47.3285 75.9317L38.7094 71.2425L57.5276 37.5347C57.6376 37.3377 57.7859 37.164 57.964 37.0236C58.142 36.8832 58.3464 36.7789 58.5654 36.7165C58.7843 36.6542 59.0136 36.6351 59.2401 36.6603C59.4665 36.6855 59.6857 36.7546 59.8851 36.8636V36.8636Z" fill="white"/>
<path opacity="0.7" d="M37.5501 83.1407C37.147 82.9217 36.8211 82.5866 36.6158 82.1801C36.4105 81.7737 36.3355 81.3151 36.4009 80.8655L37.5311 73.1152L46.147 77.8161L40.1152 82.8962C39.7634 83.1893 39.3295 83.3697 38.8713 83.4133C38.4131 83.457 37.9523 83.3619 37.5501 83.1407V83.1407Z" fill="white"/>
</svg>
