<svg width="100" height="120" viewBox="0 0 100 120" fill="none" xmlns="http://www.w3.org/2000/svg">
<g clip-path="url(#clip0)">
<path opacity="0.7" d="M73.289 23.0664L78.3713 39.8168C78.5084 40.268 78.7532 40.6792 79.0845 41.0151C79.4158 41.3509 79.8238 41.6013 80.2734 41.7448L96.9748 47.0661C97.4932 47.2294 97.9555 47.5344 98.3093 47.9466C98.6632 48.3588 98.8945 48.8617 98.9771 49.3985C99.0597 49.9352 98.9902 50.4843 98.7766 50.9836C98.563 51.483 98.2137 51.9126 97.7684 52.2239L83.3858 62.231C83.001 62.5021 82.6876 62.8623 82.4725 63.2808C82.2574 63.6993 82.147 64.1636 82.1507 64.6341L82.2495 82.1434C82.2524 82.686 82.1033 83.2186 81.8192 83.681C81.535 84.1434 81.127 84.5171 80.6414 84.7601C80.1557 85.003 79.6118 85.1053 79.0709 85.0556C78.5301 85.0059 78.014 84.806 77.5809 84.4786L63.609 73.907C63.233 73.6226 62.7935 73.4336 62.3283 73.3562C61.8631 73.2789 61.386 73.3154 60.9381 73.4628L44.2984 78.9691C43.7841 79.138 43.2329 79.1602 42.7067 79.0334C42.1804 78.9066 41.7 78.6358 41.3193 78.2513C40.9386 77.8668 40.6728 77.3839 40.5516 76.8568C40.4304 76.3297 40.4587 75.7793 40.6333 75.2674L46.3795 58.7267C46.5347 58.2811 46.579 57.8044 46.5085 57.3379C46.4381 56.8714 46.2549 56.429 45.975 56.0491L35.5694 41.9299C35.2489 41.4927 35.057 40.9747 35.0154 40.4344C34.9738 39.8941 35.0841 39.3529 35.3338 38.8719C35.5836 38.3908 35.9629 37.989 36.4289 37.7118C36.895 37.4345 37.4293 37.2928 37.9716 37.3027L55.4944 37.6575C55.9685 37.6645 56.4371 37.5557 56.8595 37.3407C57.2819 37.1257 57.6454 36.8108 57.9183 36.4236L68.1263 22.2119C68.4425 21.7679 68.8771 21.4215 69.3807 21.2123C69.8843 21.003 70.4366 20.9393 70.9747 21.0284C71.5128 21.1174 72.015 21.3557 72.4242 21.716C72.8334 22.0763 73.133 22.5442 73.289 23.0664V23.0664Z" fill="white"/>
<path opacity="0.6" d="M27.8282 41.0512L37.7089 52.9462C37.9745 53.2673 38.3142 53.5193 38.6987 53.6805C39.0832 53.8417 39.5011 53.9073 39.9166 53.8716L55.3182 52.4897C55.7956 52.4462 56.2756 52.5372 56.7039 52.7523C57.1322 52.9675 57.4916 53.2982 57.7413 53.707C57.9911 54.1158 58.1212 54.5863 58.117 55.0652C58.1127 55.5441 57.9743 56.0123 57.7173 56.4166L49.4453 69.4715C49.2233 69.8235 49.0898 70.224 49.0565 70.6387C49.0232 71.0534 49.0909 71.4701 49.2539 71.853L55.3305 86.043C55.5188 86.4834 55.5801 86.9677 55.5073 87.441C55.4345 87.9144 55.2307 88.3579 54.9187 88.7215C54.6068 89.0852 54.1993 89.3544 53.7422 89.4987C53.2851 89.643 52.7968 89.6566 52.3323 89.5381L37.3507 85.713C36.9474 85.6096 36.525 85.6059 36.1199 85.7021C35.7148 85.7983 35.3393 85.9915 35.0257 86.2651L23.3541 96.4419C22.9929 96.7564 22.5508 96.9638 22.0779 97.0406C21.6049 97.1173 21.1199 97.0604 20.6776 96.8762C20.2353 96.692 19.8534 96.3879 19.575 95.9982C19.2967 95.6086 19.1329 95.149 19.1023 94.6712L18.1142 79.2472C18.0893 78.8332 17.9638 78.4314 17.7486 78.0767C17.5334 77.7219 17.235 77.4249 16.8791 77.2112L3.60196 69.2833C3.19084 69.0374 2.85675 68.6816 2.63744 68.2559C2.41812 67.8303 2.32232 67.3519 2.36086 66.8748C2.39941 66.3976 2.57075 65.9407 2.85555 65.5558C3.14034 65.1708 3.52722 64.8731 3.97248 64.6962L18.3427 58.9924C18.7277 58.8374 19.0693 58.5914 19.3382 58.2754C19.6071 57.9595 19.7953 57.5831 19.8866 57.1786L23.3541 42.1247C23.461 41.6591 23.6958 41.2325 24.0322 40.8929C24.3686 40.5534 24.7932 40.3144 25.2582 40.2028C25.7231 40.0912 26.21 40.1115 26.6641 40.2614C27.1181 40.4113 27.5213 40.6848 27.8282 41.0512V41.0512Z" stroke="white" stroke-width="2" stroke-miterlimit="10"/>
</g>
<defs>
<clipPath id="clip0">
<rect width="99" height="78" fill="white" transform="translate(0 21)"/>
</clipPath>
</defs>
</svg>
