<svg width="100" height="120" viewBox="0 0 100 120" fill="none" xmlns="http://www.w3.org/2000/svg">
<path opacity="0.7" d="M50.3345 47.9747L53.2463 53.9625C53.3228 54.1262 53.4376 54.2683 53.5807 54.3764C53.7239 54.4845 53.891 54.5552 54.0674 54.5824L60.5777 55.5432C60.78 55.572 60.9704 55.6579 61.1271 55.7912C61.2839 55.9244 61.4006 56.0995 61.4642 56.2968C61.5278 56.494 61.5356 56.7054 61.4868 56.9069C61.438 57.1085 61.3345 57.292 61.1881 57.4368L56.4786 62.0857C56.3535 62.2118 56.2604 62.3667 56.2073 62.5373C56.1541 62.7079 56.1425 62.889 56.1734 63.0651L57.2844 69.648C57.3191 69.852 57.2969 70.0618 57.2203 70.2537C57.1437 70.4455 57.0157 70.6118 56.8509 70.7337C56.6861 70.8556 56.491 70.9282 56.2877 70.9434C56.0843 70.9585 55.8809 70.9156 55.7003 70.8195L49.8798 67.7202C49.7231 67.6364 49.5487 67.5925 49.3716 67.5925C49.1945 67.5925 49.0201 67.6364 48.8634 67.7202L43.0398 70.8195C42.8593 70.9156 42.6558 70.9585 42.4525 70.9434C42.2491 70.9282 42.054 70.8556 41.8892 70.7337C41.7244 70.6118 41.5965 70.4455 41.5199 70.2537C41.4433 70.0618 41.4211 69.852 41.4558 69.648L42.5668 63.0651C42.5984 62.889 42.5872 62.7076 42.534 62.5369C42.4808 62.3662 42.3873 62.2113 42.2615 62.0857L37.552 57.4368C37.4056 57.292 37.3021 57.1085 37.2533 56.9069C37.2045 56.7054 37.2123 56.494 37.2759 56.2968C37.3395 56.0995 37.4563 55.9244 37.613 55.7912C37.7697 55.6579 37.9601 55.572 38.1625 55.5432L44.6697 54.5824C44.8464 54.5552 45.0139 54.4845 45.1576 54.3764C45.3012 54.2684 45.4166 54.1263 45.4938 53.9625L48.375 47.9747C48.4653 47.7891 48.6049 47.6329 48.778 47.5236C48.9512 47.4144 49.1509 47.3564 49.3548 47.3564C49.5586 47.3564 49.7584 47.4144 49.9316 47.5236C50.1047 47.6329 50.2443 47.7891 50.3345 47.9747V47.9747Z" fill="white"/>
<path opacity="0.6" d="M78.378 61.9221C78.3785 63.6178 78.9618 65.2601 80.0271 66.5659C81.0924 67.8717 82.5731 68.7592 84.2137 69.0752C84.587 69.1434 84.9249 69.3423 85.1686 69.6373C85.4123 69.9324 85.5464 70.3048 85.5475 70.6899V86.3413C85.5475 87.7433 85.2755 89.1315 84.7471 90.4267C84.2186 91.7219 83.4441 92.8988 82.4676 93.89C81.4912 94.8812 80.3321 95.6673 79.0564 96.2036C77.7807 96.7398 76.4134 97.0156 75.0328 97.0152H24.977C23.5948 97.0168 22.2259 96.7416 20.9485 96.2054C19.6712 95.6691 18.5105 94.8823 17.533 93.89C16.5555 92.8977 15.7803 91.7193 15.2518 90.4224C14.7233 89.1255 14.4519 87.7355 14.4531 86.332V70.6806C14.4543 70.2956 14.5884 69.9231 14.8321 69.628C15.0758 69.333 15.4137 69.1341 15.7869 69.0659C17.4279 68.7504 18.9089 67.8632 19.9743 66.5572C21.0398 65.2513 21.6228 63.6086 21.6228 61.9128C21.6228 60.2169 21.0398 58.5743 19.9743 57.2683C18.9089 55.9624 17.4279 55.0751 15.7869 54.7597C15.414 54.6909 15.0764 54.4918 14.8328 54.1969C14.5892 53.902 14.4549 53.5299 14.4531 53.1449V35.4791C14.4564 32.6495 15.5656 29.9369 17.5371 27.9373C19.5087 25.9376 22.1813 24.8145 24.9679 24.8145H75.0236C77.8123 24.8145 80.4868 25.9393 82.4587 27.9417C84.4306 29.944 85.5384 32.6597 85.5384 35.4915V53.1573C85.5366 53.5423 85.4023 53.9144 85.1587 54.2093C84.9151 54.5042 84.5776 54.7033 84.2046 54.7721C82.5664 55.0905 81.0886 55.9784 80.0253 57.2833C78.9619 58.5882 78.3794 60.2284 78.378 61.9221V61.9221Z" stroke="white" stroke-width="2" stroke-miterlimit="10"/>
<path opacity="0.6" d="M79.6853 25.9173L49.2245 8.87133C47.7962 8.07102 46.1347 7.81089 44.5353 8.13717C42.9359 8.46346 41.5023 9.35503 40.4892 10.6534L29.4678 24.814" stroke="white" stroke-width="2" stroke-miterlimit="10"/>
</svg>
