<svg width="3667" height="3626" viewBox="0 0 3667 3626" fill="none"
  xmlns="http://www.w3.org/2000/svg">
  <g opacity="0.8" filter="url(#filter0_f)">
    <g>
      <path d="M1957.48 2240.47C1872.1 2280.75 1765.82 2282.32 1668.79 2254.33C1621.23 2240.6 1581.07 2221.14 1551.9 2200.95C1537.46 2190.96 1526.99 2181.68 1519.93 2174.08C1519.09 2173.18 1518.32 2172.32 1517.61 2171.5C1517.96 2170.58 1518.35 2169.59 1518.78 2168.52C1527.53 2147 1548.25 2114.13 1585.83 2073.54C1660.48 1992.9 1774.92 1910.42 1888.79 1856.71C1998.07 1805.17 2101.7 1787.98 2176.52 1794.23C2213.61 1797.33 2238.34 1805.7 2252.63 1813.47C2260.48 1817.74 2264.39 1821.3 2266.31 1823.55C2266.63 1827.93 2266.99 1840.3 2261.85 1863.31C2253.72 1899.69 2235.07 1946.82 2204.84 1998.11C2142.98 2103.07 2050 2196.84 1957.48 2240.47ZM1514.8 2181.12C1514.79 2181.12 1514.8 2180.9 1514.89 2180.43C1514.86 2180.87 1514.81 2181.11 1514.8 2181.12ZM2268.04 1826.12C2268.01 1826.04 2267.98 1825.97 2267.94 1825.9C2267.99 1825.99 2268.01 1826.05 2268.03 1826.09C2268.04 1826.1 2268.04 1826.11 2268.04 1826.12Z" stroke="url(#paint0_linear)" stroke-width="339.726"/>
    </g>
    <g opacity="0.1">
      <path d="M2113.38 2332.91C2242.51 2228.34 2366.79 2066.05 2444.76 1908.61C2483.99 1829.38 2517.49 1739.51 2529.39 1649.23C2540.84 1562.3 2536.11 1440.23 2453.42 1338.12C2377.21 1244.01 2268.46 1206.89 2183.87 1192.13C2095.08 1176.63 2000 1179.68 1911.07 1192.68C1737.1 1218.1 1539.13 1289.05 1399.15 1402.41C1267.18 1509.27 1170.39 1649.08 1127.65 1797.58C1085.16 1945.22 1092.4 2123.15 1207.46 2265.23C1398.37 2500.97 1816.11 2573.65 2113.38 2332.91Z" stroke="url(#paint1_linear)" stroke-width="440.834"/>
      <path d="M2113.38 2332.91C2242.51 2228.34 2366.79 2066.05 2444.76 1908.61C2483.99 1829.38 2517.49 1739.51 2529.39 1649.23C2540.84 1562.3 2536.11 1440.23 2453.42 1338.12C2377.21 1244.01 2268.46 1206.89 2183.87 1192.13C2095.08 1176.63 2000 1179.68 1911.07 1192.68C1737.1 1218.1 1539.13 1289.05 1399.15 1402.41C1267.18 1509.27 1170.39 1649.08 1127.65 1797.58C1085.16 1945.22 1092.4 2123.15 1207.46 2265.23C1398.37 2500.97 1816.11 2573.65 2113.38 2332.91Z" stroke="url(#paint2_linear)" stroke-width="440.834"/>
    </g>
    <g opacity="0.3">
      <path d="M1350.81 1771.35C1302.45 1949.97 1323.41 2173.4 1388.43 2358.94C1450.67 2536.54 1582.05 2756.33 1819.76 2820.68C2040.86 2880.54 2275.26 2788.5 2438.5 2681.41C2603.98 2572.86 2770.93 2400.46 2824.65 2202.03C2926.88 1824.44 2688.4 1448.26 2317.13 1347.74C2143.61 1300.76 1942.16 1306.44 1768.36 1364.86C1596.55 1422.6 1411.23 1548.18 1350.81 1771.35Z" stroke="url(#paint3_linear)" stroke-width="440.834"/>
      <path d="M1350.81 1771.35C1302.45 1949.97 1323.41 2173.4 1388.43 2358.94C1450.67 2536.54 1582.05 2756.33 1819.76 2820.68C2040.86 2880.54 2275.26 2788.5 2438.5 2681.41C2603.98 2572.86 2770.93 2400.46 2824.65 2202.03C2926.88 1824.44 2688.4 1448.26 2317.13 1347.74C2143.61 1300.76 1942.16 1306.44 1768.36 1364.86C1596.55 1422.6 1411.23 1548.18 1350.81 1771.35Z" stroke="url(#paint4_linear)" stroke-width="440.834"/>
    </g>
    <g>
      <path d="M2107.41 2436.97C2230.26 2400.79 2349.46 2352.18 2435.11 2281.27C2517.63 2212.95 2568.23 2125.13 2561.59 2001.03C2555.25 1882.39 2473.45 1763.52 2325.96 1683.31C2180.23 1604.06 1976.18 1566.91 1744.29 1611.57C1641.59 1642.93 1544.55 1726.84 1482.5 1839.24C1420.17 1952.14 1397.09 2086.69 1434.17 2212.58C1440.78 2235.01 1464.28 2267.34 1513.64 2303.51C1561.18 2338.36 1624.84 2370.94 1696.45 2396.78C1842.5 2449.49 2002.9 2467.75 2107.41 2436.97Z" stroke="url(#paint5_linear)" stroke-width="146.621"/>
      <path d="M2107.41 2436.97C2230.26 2400.79 2349.46 2352.18 2435.11 2281.27C2517.63 2212.95 2568.23 2125.13 2561.59 2001.03C2555.25 1882.39 2473.45 1763.52 2325.96 1683.31C2180.23 1604.06 1976.18 1566.91 1744.29 1611.57C1641.59 1642.93 1544.55 1726.84 1482.5 1839.24C1420.17 1952.14 1397.09 2086.69 1434.17 2212.58C1440.78 2235.01 1464.28 2267.34 1513.64 2303.51C1561.18 2338.36 1624.84 2370.94 1696.45 2396.78C1842.5 2449.49 2002.9 2467.75 2107.41 2436.97Z" stroke="url(#paint6_linear)" stroke-width="146.621"/>
    </g>
  </g>
  <defs>
    <filter id="filter0_f" x="0" y="0" width="3667" height="3626" filterUnits="userSpaceOnUse" color-interpolation-filters="sRGB">
      <feFlood flood-opacity="0" result="BackgroundImageFix"/>
      <feBlend mode="normal" in="SourceGraphic" in2="BackgroundImageFix" result="shape"/>
      <feGaussianBlur stdDeviation="140" result="effect1_foregroundBlur"/>
    </filter>

    <linearGradient id="paint0_linear" x1="2654.46" y1="1804.82" x2="1644.1" y2="1704.19" gradientUnits="userSpaceOnUse">
      <stop stop-color="#2947E8"/>
      <stop offset="1" stop-color="#1A2B85" stop-opacity="0"/>
    </linearGradient>
    <linearGradient id="paint1_linear" x1="1503.38" y1="1294.57" x2="2170.16" y2="1934.73" gradientUnits="userSpaceOnUse">
      <stop stop-color="#CB3ACE"/>
      <stop offset="1" stop-color="#CB3ACE" stop-opacity="0"/>
    </linearGradient>
    <linearGradient id="paint2_linear" x1="1607.7" y1="969.444" x2="1906.97" y2="1904.32" gradientUnits="userSpaceOnUse">
      <stop stop-color="#2947E8"/>
      <stop offset="1" stop-color="#1A2B85" stop-opacity="0"/>
    </linearGradient>
    <linearGradient id="paint3_linear" x1="2382.3" y1="2219.96" x2="1577.66" y2="2327.67" gradientUnits="userSpaceOnUse">
      <stop stop-color="#8853DF"/>
      <stop offset="1" stop-color="#CB3ACE" stop-opacity="0"/>
    </linearGradient>
    <linearGradient id="paint4_linear" x1="3112.72" y1="2730.22" x2="2155.54" y2="1761.96" gradientUnits="userSpaceOnUse">
      <stop stop-color="#2947E8"/>
      <stop offset="1" stop-color="#1A2B85" stop-opacity="0"/>
    </linearGradient>
    <linearGradient id="paint5_linear" x1="1806.5" y1="1958.5" x2="1540.78" y2="2427.88" gradientUnits="userSpaceOnUse">
      <stop stop-color="#9F0DAB"/>
      <stop offset="1" stop-color="#D27B15" stop-opacity="0.61"/>
    </linearGradient>
    <linearGradient id="paint6_linear" x1="920.52" y1="2899.51" x2="1865.98" y2="2059.85" gradientUnits="userSpaceOnUse">
      <stop stop-color="#E829A7"/>
      <stop offset="1" stop-color="#CB23DA" stop-opacity="0"/>
    </linearGradient>
  </defs>
</svg>
