<svg width="46" height="47" viewBox="0 0 26 27" fill="none" xmlns="http://www.w3.org/2000/svg">
<path fill-rule="evenodd" clip-rule="evenodd" d="M17.3361 0.212891C24.3291 0.267841 25.9971 2.05806 25.9992 9.21704V17.2195C25.9971 24.4938 24.2615 26.2116 16.9805 26.2116H9.00438C1.8093 26.2116 0.0426786 24.5209 0 17.4611V8.94997C0.0421534 2.01538 1.7658 0.267183 8.6759 0.212891H17.3361ZM12.9457 21.4002C11.8643 21.4002 10.7936 21.1869 9.79482 20.7724C8.79606 20.3579 7.88888 19.7505 7.12525 18.9849C6.36163 18.2193 5.75656 17.3105 5.34471 16.3107C4.93286 15.3109 4.72233 14.2396 4.72517 13.1583C4.72517 11.5273 5.20911 9.93294 6.11572 8.5771C7.02233 7.22126 8.31084 6.16489 9.81814 5.54172C11.3254 4.91855 12.9837 4.7566 14.5831 5.07637C16.1825 5.39614 17.6511 6.18325 18.8029 7.33806C19.9547 8.49287 20.738 9.96345 21.0536 11.5636C21.3691 13.1638 21.2028 14.8217 20.5757 16.3273C19.9486 17.8329 18.8888 19.1187 17.5306 20.0217C16.1723 20.9247 14.5767 21.4045 12.9457 21.4002ZM12.9457 7.80753C11.8874 7.80753 10.8528 8.12134 9.97288 8.70929C9.09293 9.29724 8.40709 10.1329 8.0021 11.1106C7.59711 12.0884 7.49114 13.1642 7.6976 14.2022C7.90407 15.2401 8.41369 16.1935 9.16202 16.9419C9.91036 17.6902 10.8638 18.1998 11.9018 18.4062C12.9397 18.6127 14.0156 18.5067 14.9934 18.1018C15.9711 17.6968 16.8068 17.0109 17.3948 16.131C17.9827 15.2511 18.2965 14.2166 18.2965 13.1583C18.2965 12.4556 18.1581 11.7598 17.8892 11.1106C17.6203 10.4615 17.2262 9.87159 16.7293 9.37473C16.2324 8.87786 15.6425 8.48373 14.9934 8.21483C14.3442 7.94593 13.6483 7.80753 12.9457 7.80753ZM21.5 6.61133C22.6046 6.61133 23.5 5.7159 23.5 4.61133C23.5 3.50676 22.6046 2.61133 21.5 2.61133C20.3954 2.61133 19.5 3.50676 19.5 4.61133C19.5 5.7159 20.3954 6.61133 21.5 6.61133Z" fill="white"/>
</svg>
