<svg width="46" height="47" viewBox="0 0 46 47" fill="none" xmlns="http://www.w3.org/2000/svg">
<path d="M29.7429 0.667969H15.7848C3.03523 0.667969 0.00195312 3.73458 0.00195312 16.6002V30.7117C0.00195312 43.6012 3.01164 46.668 15.761 46.668H29.7191C42.4687 46.668 45.502 43.6252 45.502 30.7356V16.6242C45.502 3.73458 42.4923 0.667969 29.7429 0.667969ZM36.7337 33.4908H33.416C32.1601 33.4908 31.7809 32.4606 29.5296 30.1846C27.5626 28.268 26.7332 28.0283 26.2355 28.0283C25.5484 28.0283 25.3587 28.22 25.3587 29.1783V32.1971C25.3587 33.0117 25.098 33.4908 22.989 33.4908C20.9424 33.3518 18.9577 32.7232 17.1984 31.6569C15.4391 30.5906 13.9556 29.117 12.8699 27.3575C10.2926 24.1143 8.49932 20.3078 7.63274 16.2408C7.63274 15.7377 7.82227 15.2825 8.77024 15.2825H12.0879C12.941 15.2825 13.2491 15.6658 13.5809 16.5523C15.1923 21.344 17.9413 25.5127 19.0551 25.5127C19.4816 25.5127 19.6712 25.3211 19.6712 24.243V19.3075C19.529 17.0555 18.3441 16.8637 18.3441 16.0492C18.3597 15.8343 18.4576 15.634 18.6169 15.4909C18.7761 15.3477 18.9843 15.273 19.1973 15.2825H24.4109C25.1218 15.2825 25.3587 15.6418 25.3587 16.5043V23.1648C25.3587 23.8836 25.6668 24.1231 25.8801 24.1231C26.3066 24.1231 26.6384 23.8836 27.4204 23.093C29.1009 21.0211 30.474 18.7128 31.4965 16.2408C31.6008 15.9434 31.7987 15.6887 32.0597 15.5156C32.3208 15.3425 32.6307 15.2607 32.9421 15.2825H36.2598C37.2551 15.2825 37.4684 15.7856 37.2551 16.5043C36.0479 19.2375 34.5543 21.8318 32.7999 24.243C32.4445 24.794 32.3023 25.0815 32.7999 25.7283C33.1316 26.2315 34.2929 27.2137 35.0749 28.1481C36.2124 29.2952 37.1569 30.6224 37.8712 32.0773C38.1555 33.0117 37.6816 33.4908 36.7337 33.4908V33.4908Z" fill="white"/>
</svg>
