<svg xmlns="http://www.w3.org/2000/svg" viewBox="0 0 156 40" fill="none" role="img" aria-label="VK  5:;0<0">
  <rect x="2" y="6" width="28" height="28" rx="8" fill="#0077FF"/>
  <path d="M16.5 12.5c2.8 0 4.2 1.5 4.2 4.2 0 2.4-1.2 3.8-3.1 4.1 1.4.2 2.4 1.1 2.9 2.8.6 1.9.8 3.1.8 3.1h-2.6s-.2-1.1-.7-2.4c-.6-1.6-1.4-2.2-2.8-2.2h-1.4v4.6h-2.4V12.5h5.1zm-2.7 6.8h1.4c1.5 0 2.3-.9 2.3-2.5 0-1.5-.8-2.3-2.3-2.3h-1.4v4.8z" fill="#fff"/>
  <text x="40" y="26" fill="#fff" font-family="Arial, Helvetica, sans-serif" font-size="18" font-weight="600">VK  5:;0<0</text>
</svg>
