<svg width="140" height="302" viewBox="0 0 140 302" fill="none" xmlns="http://www.w3.org/2000/svg">
<path d="M32.021 3.68057V2.02432C32.021 0.906323 31.1146 1.12322e-05 29.9966 1.12322e-05L25.256 0C17.8449 0 14.1393 0 11.184 1.11673C6.53883 2.87199 2.87199 6.53883 1.11673 11.184C0 14.1393 0 17.8449 0 25.256V276.55C0 283.961 0 287.666 1.11673 290.622C2.87199 295.267 6.53883 298.934 11.184 300.689C14.1393 301.806 17.8449 301.806 25.256 301.806H114.237C121.648 301.806 125.354 301.806 128.309 300.689C132.954 298.934 136.621 295.267 138.376 290.622C139.493 287.666 139.493 283.961 139.493 276.55V25.256C139.493 17.8449 139.493 14.1393 138.376 11.184C136.621 6.53883 132.954 2.87199 128.309 1.11673C125.354 0 121.648 0 114.237 0L109.496 1.12322e-05C108.378 1.12322e-05 107.472 0.906323 107.472 2.02432V3.68057L107.446 3.67974L107.472 3.86458C107.472 8.23492 103.929 11.7778 99.559 11.7778H39.934C35.5637 11.7778 32.0208 8.23492 32.0208 3.86458L32.0472 3.67974L32.021 3.68057Z" fill="black"/>
</svg>
