<svg xmlns="http://www.w3.org/2000/svg" viewBox="0 0 241 68" aria-hidden="true" role="img">
  <g fill="#ffffff">
<g>
      <g>
        <path d="M14.2,16.2c1.8,0,3.6,0.2,5.2,0.6c1.6,0.4,3.3,1.1,5.1,2v7c-1.7-1.1-3.5-1.9-5.4-2.6c-1.9-0.7-3.6-1-5.1-1
			c-1.3,0-2.3,0.2-3,0.7c-0.7,0.5-1.1,1.2-1.1,2c0,0.5,0.3,1,0.9,1.5c0.6,0.5,2.2,1.4,4.9,2.8c3.8,1.9,6.5,3.7,8,5.3
			c1.5,1.6,2.3,3.6,2.3,5.9c0,3.2-1.1,5.7-3.4,7.6c-2.2,1.8-5.3,2.8-9.1,2.8c-2.4,0-4.6-0.3-6.7-0.8c-2.1-0.5-3.8-1.2-5.1-1.9v-7.3
			c4.3,2.4,7.9,3.6,10.8,3.6c1.5,0,2.7-0.3,3.6-0.8c0.9-0.5,1.4-1.2,1.4-2.1c0-0.5-0.2-1-0.5-1.4c-0.3-0.4-0.8-0.9-1.5-1.3
			c-0.7-0.5-2.8-1.5-6.3-3.3c-2.7-1.3-4.7-2.7-6-4.2c-1.3-1.5-1.9-3.3-1.9-5.4c0-3,1.2-5.3,3.5-7.1C7.4,17,10.5,16.2,14.2,16.2"/>
        <path d="M46.8,16.2c4.9,0,8.8,1.6,11.7,4.7c2.9,3.1,4.3,7.5,4.3,13v1.3H39.1c0.4,3,1.5,5.3,3.3,6.9c1.9,1.6,4.4,2.4,7.7,2.4
			c2.1,0,4.1-0.4,6.1-1.1s4-1.8,6-3.3v6.5c-3.9,2.8-8.7,4.1-14.2,4.1c-5.3,0-9.6-1.6-12.9-4.8c-3.3-3.2-5-7.4-5-12.7
			c0-5.1,1.5-9.2,4.6-12.4S41.8,16.2,46.8,16.2 M54.4,29.9c-0.2-2.4-1-4.3-2.2-5.7c-1.2-1.4-2.9-2.1-5.1-2.1c-2.2,0-4,0.7-5.3,2
			c-1.3,1.3-2.2,3.2-2.6,5.8H54.4z"/>
        <path d="M92.3,17.9c-0.6-0.4-1.1-0.7-1.6-0.9c-1.1-0.5-2.3-0.8-3.5-0.8c-1.9,0-3.7,0.7-5.3,2.2c-1.6,1.4-3.2,3.8-4.8,7h-0.1v-8.5
			h-8.8v33.4h8.8V35c0-1.7,0.4-3.3,1.2-5c0.8-1.7,1.9-3,3.2-4c1.3-1,2.7-1.5,4-1.5c1.1,0,2.5,0.5,4.1,1.5L92.3,17.9z"/>
        <path d="M149.3,16.2c3.6,0,6.4,1.2,8.6,3.5C160,22,161,25.1,161,29v21.2h-8.8V29.9c0-2.2-0.5-3.9-1.6-5.1c-1-1.3-2.4-1.9-4.2-1.9
			c-1.4,0-2.6,0.4-3.8,1.2c-1.2,0.8-2.5,2.1-3.9,4v22.2h-8.8V16.8h8.8v4.7c1.6-1.9,3.3-3.3,5-4.1C145.4,16.6,147.3,16.2,149.3,16.2"
        />
        <path d="M193.1,7.9h0.7v8.9h16.6v6.7h-16.6v15.4c0,1.5,0.5,2.7,1.4,3.6c0.9,0.9,2.1,1.4,3.7,1.4c2,0,4.4-0.7,7.1-2.2v7
			c-3.2,1.4-6.1,2.1-8.9,2.1c-3.8,0-6.7-1-8.8-3.1c-2.1-2.1-3.2-4.8-3.2-8.3v-16h-5.2V22L193.1,7.9z"/>
        <polygon points="213.7,16.8 221.6,34.8 229.6,16.8 239,16.8 215.9,67 206.5,67 217.1,44.1 204.1,16.8 		"/>
        <path d="M109.6,16.2c4.9,0,8.8,1.6,11.7,4.7c2.9,3.1,4.3,7.5,4.3,13v1.3h-23.6c0.4,3,1.5,5.3,3.3,6.9c1.9,1.6,4.4,2.4,7.7,2.4
			c2.1,0,4.1-0.4,6.1-1.1c1.9-0.7,4-1.8,6-3.3v6.5c-3.9,2.8-8.7,4.1-14.2,4.1c-5.3,0-9.6-1.6-12.9-4.8c-3.3-3.2-5-7.4-5-12.7
			c0-5.1,1.5-9.2,4.6-12.4S104.6,16.2,109.6,16.2 M117.2,29.9c-0.2-2.4-1-4.3-2.2-5.7c-1.2-1.4-2.9-2.1-5.1-2.1c-2.2,0-4,0.7-5.3,2
			c-1.3,1.3-2.2,3.2-2.6,5.8H117.2z"/>
        <path d="M171.2,1.4c1.4,0,2.5,0.5,3.5,1.5c1,1,1.5,2.1,1.5,3.5c0,1.3-0.5,2.5-1.4,3.5c-1,1-2.1,1.5-3.5,1.5
			c-1.3,0-2.5-0.5-3.5-1.5c-1-1-1.5-2.2-1.5-3.5c0-1.4,0.5-2.6,1.5-3.5C168.7,1.8,169.9,1.4,171.2,1.4 M175.6,50.2h-8.8V16.8h8.8
			V50.2z"/>
      </g>
    </g>
    <g id="Слой_2">
    </g>
    <g id="Слой_3">
    </g>
  </g>
</svg>
