<svg width="125" height="19" viewBox="0 0 125 19" fill="none" xmlns="http://www.w3.org/2000/svg">
<path d="M2.58584 0.637505C3.15588 0.60869 3.72842 0.624977 4.29846 0.627483C4.61668 0.602426 4.75449 0.939437 4.87226 1.17246C6.6588 4.88335 8.48166 8.57669 10.2519 12.2938C10.3308 12.2187 10.3985 12.1347 10.4549 12.042C12.3554 8.34116 14.2722 4.64782 16.1766 0.948207C16.2605 0.794109 16.3983 0.61746 16.595 0.631241C17.1237 0.628735 17.6561 0.592403 18.1811 0.655045C18.3026 0.775316 18.3289 0.948207 18.3577 1.10857C19.0781 6.46317 19.7972 11.819 20.5176 17.1736C20.5677 17.4079 20.5389 17.7863 20.2194 17.7787C19.1733 17.7963 18.126 17.7837 17.0786 17.785C16.833 17.8251 16.5724 17.6422 16.5599 17.3866C16.2843 13.9075 15.9974 10.4171 15.3447 6.9856C13.592 10.3056 11.9031 13.6607 10.163 16.9869C9.92242 17.4342 9.33234 17.4455 8.90262 17.3277C8.55934 17.2187 8.4303 16.8567 8.28998 16.5622C6.84923 13.5818 5.40095 10.6038 3.95644 7.62329C3.8299 7.35268 3.70212 7.08207 3.54426 6.82774C2.8552 10.2968 2.4994 13.8235 2.19872 17.3453C2.18619 17.552 2.04462 17.7687 1.81786 17.7737C1.21274 17.8101 0.605117 17.7725 0 17.7888C0.767985 12.2663 1.57857 6.75007 2.34781 1.22759C2.38414 1.01962 2.39541 0.771558 2.58584 0.637505ZM59.6623 1.61095C59.7801 1.22007 60.2499 1.32406 60.5618 1.30401C60.9389 1.28397 61.4326 1.3228 61.5791 1.7425C62.4912 3.9976 63.4221 6.24518 64.3178 8.50654C63.1965 8.78592 62.0565 8.98261 60.9339 9.25322C60.5255 8.19333 60.1434 7.12341 59.7675 6.05099C59.1975 7.34266 58.8805 8.74457 58.328 10.0413C57.4937 10.4221 56.6693 10.8468 55.9602 11.4344C55.7572 11.6048 55.5593 11.7814 55.335 11.9218C56.7958 8.49275 58.2115 5.04371 59.6623 1.61095ZM88.2669 1.39422C90.2527 1.19126 92.3361 1.34911 94.159 2.21482C96.2913 3.23462 97.9852 5.20157 98.5239 7.52056C98.926 9.28454 98.8734 11.1776 98.2583 12.8877C97.4464 15.0989 95.5722 16.8629 93.3647 17.6497C91.4679 18.3012 89.3982 18.355 87.4351 18.0143C85.1687 17.6121 83.094 16.2352 81.8725 14.2821C80.7262 12.4517 80.4568 10.1791 80.8076 8.07556C81.1007 6.28652 82.0454 4.62025 83.426 3.44635C84.7578 2.25115 86.4979 1.57588 88.2669 1.39422ZM88.6942 2.84499C87.5303 3.0467 86.5017 3.77585 85.8552 4.75431C84.8041 6.23766 84.5498 8.11189 84.5799 9.88716C84.5573 11.7338 84.9231 13.6832 86.1284 15.1428C87.7959 17.3027 91.488 17.3478 93.2256 15.253C94.2843 14.0328 94.7553 12.4154 94.838 10.8268C94.8919 9.30459 94.8957 7.7373 94.377 6.28527C93.9924 5.22913 93.3584 4.23313 92.4464 3.55911C91.3752 2.78736 89.9695 2.61197 88.6942 2.84499ZM23.5069 2.2499C23.4768 2.03316 23.6096 1.76129 23.8539 1.76004C24.7772 1.73749 25.7018 1.75002 26.6252 1.75378C26.8933 1.72496 27.0599 2.01437 27.0436 2.2524C27.0499 5.68391 27.0449 9.11541 27.0461 12.5469C27.2027 12.4279 27.3443 12.2913 27.4746 12.1435C30.3824 8.92247 33.0334 5.48095 35.6593 2.0294C36.1066 1.56209 36.8257 1.80139 37.397 1.75628C37.6263 1.71118 37.7127 1.93168 37.6939 2.1196C37.6989 7.13594 37.6914 12.1523 37.6977 17.1686C37.729 17.4355 37.5987 17.8013 37.2742 17.78C36.3872 17.7938 35.499 17.7863 34.6107 17.7837C34.389 17.8163 34.1559 17.6397 34.1622 17.4079C34.1396 13.9288 34.176 10.4472 34.1434 6.96681C31.2281 9.99991 28.7462 13.4126 26.1441 16.7101C25.8133 17.0759 25.6029 17.6347 25.0854 17.765C24.5968 17.8025 24.102 17.8063 23.6146 17.7612C23.4643 17.6497 23.5244 17.4367 23.5044 17.2789C23.5106 12.2688 23.5044 7.25997 23.5069 2.2499ZM41.6742 2.25366C41.6391 1.98806 41.8471 1.6974 42.1365 1.75252C43.7263 1.74626 45.3186 1.75127 46.9097 1.75127C48.1951 1.7851 49.5206 1.90913 50.6908 2.48668C52.2643 3.27597 53.3105 5.00237 53.2979 6.76134C53.323 7.95404 53.0449 9.19935 52.2856 10.1452C51.5339 11.0999 50.3914 11.6587 49.235 11.9518C47.9233 12.2776 46.5564 12.369 45.2096 12.3089C45.2147 13.9651 45.2147 15.6226 45.2109 17.2789C45.246 17.5332 45.0593 17.8163 44.7812 17.7825C43.8591 17.785 42.9345 17.8 42.0137 17.775C41.7807 17.7624 41.6516 17.4981 41.6742 17.2889C41.6717 12.2763 41.6717 7.26498 41.6742 2.25366ZM45.2134 3.19328C45.2134 5.80293 45.2084 8.41257 45.2159 11.0222C46.3597 11.0824 47.6001 10.8832 48.477 10.0889C49.4079 9.26325 49.7086 7.9578 49.696 6.75884C49.7123 5.76785 49.3929 4.70795 48.5986 4.0665C47.6627 3.29351 46.3861 3.14191 45.2134 3.19328ZM68.0688 1.74877C71.9538 1.7638 75.8401 1.72496 79.7226 1.76756C79.7514 1.79888 79.8078 1.86152 79.8354 1.89284C79.8592 2.45912 79.8842 3.03542 79.8216 3.60045C79.6901 3.84976 79.3756 3.7558 79.1539 3.732C78.0113 3.51902 76.8486 3.45637 75.6885 3.44009C75.6848 8.05552 75.691 12.6709 75.686 17.2864C75.7136 17.5457 75.5006 17.8389 75.2187 17.7837C74.338 17.7875 73.4572 17.7913 72.5765 17.7825C72.3034 17.8126 72.1167 17.5382 72.1493 17.2876C72.1443 12.6709 72.1518 8.05426 72.1455 3.43758C70.9077 3.45136 69.6699 3.54407 68.4497 3.76332C68.2079 3.83598 67.941 3.65808 67.9661 3.39499C67.9711 2.85 67.8483 2.26493 68.0688 1.74877ZM101.622 2.24113C101.582 2.0056 101.754 1.74 102.012 1.75503C103.605 1.74125 105.199 1.75378 106.794 1.75002C108.137 1.78635 109.537 1.90286 110.743 2.55183C112.3 3.37243 113.273 5.13266 113.243 6.88036C113.238 8.15825 112.881 9.50003 111.968 10.4334C110.923 11.5296 109.402 11.9869 107.944 12.1924C107.024 12.2963 106.092 12.3765 105.168 12.3026C105.145 13.9664 105.173 15.6314 105.155 17.2951C105.179 17.567 104.943 17.8288 104.664 17.7837C103.781 17.7875 102.896 17.7925 102.013 17.7812C101.755 17.795 101.577 17.5294 101.622 17.2914C101.621 12.275 101.62 7.25746 101.622 2.24113ZM105.159 3.19704C105.161 5.80418 105.159 8.41257 105.16 11.021C106.261 11.0761 107.445 10.8969 108.318 10.1741C109.179 9.47122 109.548 8.34617 109.618 7.26874C109.718 6.1675 109.496 4.93221 108.643 4.15796C107.708 3.30979 106.372 3.13816 105.159 3.19704ZM115.998 2.2499C115.967 2.00184 116.152 1.7212 116.426 1.75378C119.186 1.74877 121.947 1.74375 124.708 1.75628C124.966 1.7425 124.956 2.06699 124.971 2.24489C124.975 2.6909 125.068 3.16572 124.9 3.59043C124.766 3.85979 124.427 3.74828 124.196 3.73074C122.656 3.48018 121.092 3.45888 119.536 3.4451C119.536 8.06053 119.539 12.676 119.535 17.2914C119.568 17.5557 119.351 17.8339 119.07 17.7837C118.188 17.7875 117.306 17.7925 116.426 17.7812C116.162 17.8038 115.971 17.5332 115.997 17.2889C115.997 12.2763 115.995 7.26247 115.998 2.2499ZM65.8901 12.5807L65.9465 12.5407C66.623 14.0829 67.2144 15.664 67.8684 17.2175C67.9698 17.4029 68.0275 17.7988 67.7092 17.7775C66.6631 17.8013 65.6158 17.7787 64.5684 17.7875C64.2727 17.8201 63.9683 17.6535 63.8806 17.3615C63.5386 16.4232 63.1765 15.4898 62.8658 14.5414C63.4446 14.2708 64.0698 14.0704 64.596 13.6882C65.0846 13.3888 65.4704 12.9629 65.8901 12.5807Z" fill="white"/>
</svg>
