<svg width="123" height="32" viewBox="0 0 123 32" fill="none" xmlns="http://www.w3.org/2000/svg">
<path d="M30.7287 12.7768L28.7278 24.0847C28.6974 24.32 28.5766 24.5352 28.3897 24.6867C28.2029 24.8382 27.9641 24.9147 27.7216 24.9006C27.6159 24.907 27.51 24.892 27.4105 24.8565C27.3109 24.8211 27.22 24.7659 27.1434 24.6945C27.0707 24.6056 27.0208 24.5012 26.9977 24.3897C26.9746 24.2783 26.9789 24.1631 27.0104 24.0536L29.0083 12.7599C29.0367 12.5216 29.1573 12.3029 29.3454 12.1485C29.5335 11.9942 29.775 11.916 30.0203 11.9298C30.126 11.9236 30.2319 11.9387 30.3314 11.9742C30.4309 12.0096 30.5218 12.0647 30.5986 12.1359C30.6705 12.2257 30.7198 12.3308 30.7424 12.4426C30.765 12.5545 30.7603 12.6699 30.7287 12.7797V12.7768ZM30.373 9.50732C27.2301 9.50732 25.2842 10.5915 24.8042 13.1552L22.9451 23.7346C22.627 26.1091 24.3329 27.3372 27.3602 27.3372C30.5003 27.3372 32.4172 26.3152 32.8972 23.7515L34.7333 13.3048C35.2103 10.7412 33.5015 9.51015 30.3615 9.51015" fill="#ED1C24"/>
<path d="M80.5564 27.1594L84.373 5.42751H80.1921L76.3726 27.1566L80.5564 27.1594Z" fill="#ED1C24"/>
<path d="M44.5266 9.62308L44.5468 9.49603C43.0606 9.31533 41.4183 9.59485 40.3572 10.775L39.6025 9.6852H37.1043L34.0337 27.1594H38.2146L40.496 14.1886C40.8082 12.407 42.6876 12.6329 43.9396 12.9039L44.5266 9.62308ZM46.3713 5.41901L42.5546 27.1594H46.7385L50.5551 5.41901H46.3713Z" fill="#ED1C24"/>
<path d="M56.8551 12.7853L54.8572 24.0931C54.8261 24.3287 54.7047 24.5439 54.5174 24.6954C54.3301 24.8468 54.0909 24.9232 53.8481 24.9091C53.7424 24.915 53.6366 24.8997 53.5372 24.8643C53.4377 24.8288 53.3468 24.774 53.2698 24.703C53.1977 24.6133 53.1483 24.5083 53.1256 24.3964C53.103 24.2845 53.1078 24.169 53.1397 24.0592L55.1377 12.7656C55.1654 12.5269 55.2858 12.3078 55.4741 12.1534C55.6624 11.9989 55.9042 11.9209 56.1496 11.9355C56.2554 11.9289 56.3614 11.9438 56.4609 11.9793C56.5604 12.0148 56.6514 12.07 56.7279 12.1416C56.8007 12.2309 56.8505 12.336 56.8731 12.448C56.8958 12.56 56.8906 12.6757 56.858 12.7853H56.8551ZM58.084 5.44442L57.2368 10.2725C56.6903 9.76991 55.8287 9.51579 54.7155 9.51579C52.466 9.51579 51.3904 10.5576 51.0348 12.582L48.9761 24.3049C48.6233 26.3039 49.7799 27.3344 52.0236 27.3344C53.4491 27.3344 54.4669 26.9137 55.2042 26.0893L55.9241 27.165H58.4541L62.2765 5.42465L58.084 5.44442Z" fill="#ED1C24"/>
<path d="M102.056 9.49603C98.8759 9.49603 96.9791 10.4616 96.4674 13.1467L96.236 14.3043C95.918 15.8996 96.3112 17.3 97.7338 18.3362L100.148 20.2759C100.358 20.4173 100.522 20.6139 100.622 20.8428C100.721 21.0716 100.753 21.3234 100.712 21.569L100.267 24.0818C100.236 24.3171 100.115 24.5323 99.9286 24.6839C99.7417 24.8354 99.5029 24.9119 99.2604 24.8978C99.1547 24.904 99.0488 24.8889 98.9494 24.8535C98.8499 24.818 98.7589 24.7629 98.6822 24.6917C98.61 24.6026 98.5606 24.498 98.538 24.3865C98.5154 24.2751 98.5202 24.16 98.5521 24.0508L99.0898 21.0015H95.0766L94.5619 23.695C94.2005 26.0978 95.9845 27.326 98.8672 27.326C102.282 27.326 104.011 26.3123 104.514 23.7487L104.803 22.1986C105.121 20.6034 104.876 19.0364 103.467 18.051L100.894 16.0068C100.666 15.875 100.487 15.6744 100.386 15.4351C100.284 15.1958 100.265 14.9308 100.33 14.6798V14.6544L100.643 12.7543C100.672 12.5157 100.793 12.297 100.981 12.1427C101.17 11.9884 101.412 11.9103 101.657 11.9242C101.763 11.9181 101.869 11.9333 101.968 11.9687C102.068 12.0042 102.159 12.0592 102.236 12.1303C102.308 12.2201 102.357 12.3251 102.38 12.437C102.402 12.5488 102.397 12.6643 102.366 12.774L101.912 15.3377H105.986L106.356 13.3133C106.824 11.0743 105.642 9.49603 102.039 9.49603" fill="#ED1C24"/>
<path d="M113.723 9.49603C110.543 9.49603 108.649 10.4616 108.134 13.1467L107.9 14.3043C107.585 15.8996 107.978 17.3 109.401 18.3362L111.818 20.2759C112.027 20.4173 112.191 20.6141 112.29 20.8431C112.389 21.0721 112.418 21.3239 112.376 21.569L111.934 24.0818C111.903 24.3171 111.782 24.5323 111.596 24.6839C111.409 24.8354 111.17 24.9119 110.927 24.8978C110.822 24.904 110.716 24.8889 110.616 24.8535C110.517 24.818 110.426 24.7629 110.349 24.6917C110.277 24.6028 110.227 24.4983 110.203 24.3869C110.18 24.2755 110.185 24.1603 110.216 24.0508L110.757 21.0015H106.741L106.232 23.695C105.873 26.0978 107.651 27.3344 110.534 27.3344C113.949 27.3344 115.681 26.3208 116.181 23.7571L116.47 22.2071C116.785 20.6118 116.542 19.0448 115.134 18.0595L112.558 16.0153C112.331 15.8824 112.154 15.6815 112.053 15.4425C111.952 15.2035 111.932 14.939 111.997 14.6883V14.6629L112.309 12.7627C112.338 12.5244 112.458 12.3057 112.647 12.1514C112.835 11.997 113.076 11.9188 113.321 11.9326C113.427 11.9261 113.533 11.941 113.633 11.9765C113.732 12.012 113.823 12.0672 113.9 12.1388C113.973 12.228 114.023 12.3329 114.046 12.4449C114.069 12.5569 114.065 12.6726 114.033 12.7825L113.579 15.3462H117.67L118.04 13.3218C118.509 11.0828 117.323 9.5045 113.723 9.5045" fill="#ED1C24"/>
<path d="M88.6722 24.0932C88.6412 24.3287 88.5197 24.5439 88.3324 24.6954C88.1451 24.8468 87.9059 24.9232 87.6631 24.9091C87.5574 24.9157 87.4514 24.9008 87.3519 24.8653C87.2523 24.8298 87.1614 24.7746 87.0849 24.703C87.0298 24.642 86.9879 24.5709 86.9616 24.4937C86.9353 24.4166 86.9251 24.3351 86.9316 24.2541C86.9317 24.1868 86.9385 24.1197 86.9518 24.0536L87.4954 20.9846C87.5418 20.682 87.6673 20.3963 87.8597 20.1549C88.0522 19.9136 88.3051 19.7248 88.5942 19.6067L89.5686 19.1606L88.6722 24.0932ZM90.355 9.50171C87.2265 9.50171 85.2055 10.5944 84.7342 13.158L84.3525 15.349H88.4872L88.944 12.7656C88.9724 12.5267 89.0934 12.3076 89.2822 12.1532C89.4709 11.9988 89.7131 11.9209 89.9589 11.9355C90.0646 11.9291 90.1706 11.9441 90.2701 11.9796C90.3696 12.0151 90.4605 12.0702 90.5372 12.1416C90.6087 12.2316 90.6577 12.3367 90.6803 12.4484C90.7029 12.5602 90.6984 12.6756 90.6673 12.7854L90.089 16.117L86.2406 17.9466C84.4392 18.7936 83.5458 19.923 83.2248 21.7243L82.7709 24.288C82.421 26.3039 83.6094 27.3345 85.8329 27.3345C87.2583 27.3345 88.2559 26.9053 89.0134 26.0837L89.7334 27.1622H92.246L94.7123 13.2173C95.1865 10.6508 93.2493 9.49324 90.355 9.49324" fill="#ED1C24"/>
<path d="M73.267 5.24963C70.124 5.24963 67.9353 6.40724 67.4842 8.97373L64.8993 23.4466C64.4685 25.9227 66.079 27.3345 69.6846 27.3345C72.7263 27.3345 74.7792 26.2051 75.2331 23.6273L76.1728 18.5451H71.9283V18.5847L70.9683 24.0085C70.9399 24.2563 70.8152 24.484 70.6199 24.6448C70.4247 24.8055 70.1737 24.887 69.9188 24.8724C69.8049 24.8785 69.6908 24.8622 69.5836 24.8243C69.4763 24.7865 69.3779 24.728 69.2942 24.6522C69.217 24.5584 69.1634 24.4483 69.1378 24.3306C69.1122 24.2128 69.1153 24.0909 69.1468 23.9746L71.9109 8.5361C71.9373 8.28742 72.0614 8.05843 72.2572 7.8973C72.4529 7.73617 72.705 7.65545 72.9605 7.67213C73.0741 7.66476 73.188 7.68052 73.295 7.71844C73.402 7.75635 73.4998 7.81558 73.5822 7.89236C73.66 7.98525 73.7139 8.09495 73.7396 8.21232C73.7652 8.32968 73.7618 8.45134 73.7296 8.56716L72.9114 13.0592H77.1299L77.847 9.05843C78.3009 6.49194 76.4013 5.24963 73.2699 5.24963" fill="#ED1C24"/>
<path d="M120.983 13.7819L119.104 24.3133C118.63 26.7471 118.04 29.7794 111.653 29.7794H69.6844C66.6022 29.7794 64.5233 29.178 63.2742 27.7889C62.5985 27.0564 62.1039 26.1822 61.8285 25.2337L61.0218 29.7794H27.3602C24.1537 29.7794 22.3842 28.9522 21.4502 28.0289C21.4333 28.0144 21.4178 27.9983 21.404 27.9809L20.7968 29.7823H1.86975V2.67739H29.9394L28.4937 6.97182H43.0721L43.8209 2.67457H65.7955L65.1333 6.76007L66.2176 5.6307C67.1269 4.69487 68.2219 3.94984 69.4359 3.44109C70.6499 2.93235 71.9574 2.67057 73.2784 2.67174H87.9002L87.1079 7.18922L87.799 7.0537C88.6436 6.89153 89.5028 6.81208 90.3636 6.81653C92.5669 6.81653 94.3508 7.3191 95.6722 8.3073L95.9613 8.53035L96.2678 8.31577C97.7135 7.3191 99.6566 6.81088 102.051 6.81088C104.297 6.81088 106.099 7.30216 107.374 8.26777L107.663 8.488L107.969 8.28189C109.415 7.30499 111.335 6.81088 113.706 6.81088C116.435 6.81088 118.479 7.53086 119.778 8.94539C120.619 9.82912 121.487 11.3735 120.983 13.7819ZM-0.000976562 31.4707H22.1818L22.4189 30.7648C23.6477 31.3295 25.2611 31.4707 27.3602 31.4707H62.6121L62.9012 29.8048C64.5146 30.9342 66.7092 31.4707 69.6728 31.4707H111.656C119.613 31.4707 120.483 27.0097 120.955 24.5872L122.828 14.0643C123.441 11.0234 122.299 9.00751 121.235 7.85273C119.561 6.03162 117.031 5.10836 113.717 5.10836C111.37 5.10836 109.357 5.54317 107.724 6.39867C106.211 5.55164 104.309 5.10836 102.059 5.10836C99.6768 5.10836 97.6441 5.55164 95.9874 6.42973C94.4549 5.55729 92.5611 5.11401 90.3434 5.11401C90.0051 5.11401 89.6697 5.11401 89.3372 5.14224L90.0716 0.974869H73.2697C71.3387 0.974752 69.4372 1.43822 67.7327 2.32446L67.9525 0.974869H42.2191L41.4702 5.27212H31.0178L32.4635 0.974869H-0.000976562V31.4678" fill="#ED1C24"/>
<path d="M18.3044 27.0662L25.7093 5.36539H21.5168L17.7146 16.3739H17.4428L17.4862 5.36539H12.8831L9.25437 16.3767H8.98257V5.36539H4.86523V27.0662H9.27171L13.3948 14.6375H13.6637L13.8979 27.0662H18.3044Z" fill="#ED1C24"/>
</svg>
